<?xml version="1.0" standalone="no"?>
<!DOCTYPE svg PUBLIC "-//W3C//DTD SVG 20010904//EN"
 "http://www.w3.org/TR/2001/REC-SVG-20010904/DTD/svg10.dtd">
<svg version="1.0" xmlns="http://www.w3.org/2000/svg"
 width="796.000000pt" height="862.000000pt" viewBox="0 0 796.000000 862.000000"
 preserveAspectRatio="xMidYMid meet">

<g transform="translate(0.000000,862.000000) scale(0.100000,-0.100000)"
fill="#000000" stroke="none">
<path d="M0 4310 l0 -4310 3980 0 3980 0 0 4310 0 4310 -3980 0 -3980 0 0
-4310z m7640 20 l0 -3910 -3660 0 -3660 0 0 3910 0 3910 3660 0 3660 0 0
-3910z"/>
<path d="M460 4330 l0 -3770 3520 0 3520 0 0 3770 0 3770 -3520 0 -3520 0 0
-3770z m2386 3576 c8 -8 14 -22 14 -30 0 -9 5 -16 10 -16 6 0 10 -9 10 -20 0
-11 5 -20 10 -20 6 0 10 -9 10 -20 0 -11 5 -20 10 -20 6 0 10 -9 10 -20 0 -11
5 -20 10 -20 6 0 10 -13 10 -30 0 -16 5 -30 10 -30 6 0 10 -9 10 -20 0 -11 5
-20 10 -20 6 0 10 -9 10 -20 0 -11 5 -20 10 -20 6 0 10 -9 10 -20 0 -11 5 -20
10 -20 6 0 10 -9 10 -20 0 -11 5 -20 10 -20 6 0 10 -9 10 -20 0 -11 5 -20 10
-20 6 0 10 -9 10 -20 0 -11 5 -20 10 -20 6 0 10 -9 10 -20 0 -11 5 -20 10 -20
6 0 10 -9 10 -20 0 -11 5 -20 10 -20 6 0 10 -9 10 -20 0 -11 5 -20 10 -20 6 0
10 -9 10 -20 0 -11 5 -20 10 -20 6 0 10 -9 10 -20 0 -11 5 -20 10 -20 6 0 10
-9 10 -20 0 -11 5 -20 10 -20 6 0 10 -9 10 -20 0 -11 5 -20 10 -20 6 0 10 -9
10 -20 0 -11 5 -20 10 -20 6 0 10 -13 10 -28 0 -16 8 -34 20 -42 12 -8 20 -26
20 -42 0 -15 5 -28 10 -28 6 0 10 -9 10 -20 0 -11 5 -20 10 -20 6 0 10 -9 10
-20 0 -11 5 -20 10 -20 6 0 10 -9 10 -20 0 -11 5 -20 10 -20 6 0 10 -9 10 -20
0 -11 5 -20 10 -20 6 0 10 -9 10 -20 0 -11 5 -20 10 -20 6 0 10 -9 10 -20 0
-11 5 -20 10 -20 6 0 10 -9 10 -20 0 -11 5 -20 10 -20 6 0 10 -9 10 -20 0 -11
5 -20 10 -20 6 0 10 -9 10 -20 0 -11 5 -20 10 -20 6 0 10 -9 10 -20 0 -11 5
-20 10 -20 6 0 10 -9 10 -20 0 -11 5 -20 10 -20 6 0 10 -9 10 -20 0 -11 5 -20
10 -20 6 0 10 -9 10 -20 0 -11 5 -20 10 -20 6 0 10 -13 10 -28 0 -16 8 -34 20
-42 11 -8 20 -26 20 -40 0 -14 9 -32 20 -40 12 -8 20 -26 20 -42 0 -15 5 -28
10 -28 6 0 10 -9 10 -20 0 -11 5 -20 10 -20 6 0 10 -9 10 -20 0 -11 5 -20 10
-20 6 0 10 -9 10 -20 0 -11 5 -20 10 -20 6 0 10 -9 10 -20 0 -11 5 -20 10 -20
6 0 10 -9 10 -20 0 -11 5 -20 10 -20 6 0 10 -9 10 -20 0 -11 5 -20 10 -20 6 0
10 -9 10 -20 0 -11 5 -20 10 -20 6 0 10 -9 10 -20 0 -11 5 -20 10 -20 6 0 10
-9 10 -20 0 -11 5 -20 10 -20 6 0 10 -9 10 -20 0 -11 5 -20 10 -20 6 0 10 -9
10 -20 0 -11 5 -20 10 -20 6 0 10 -9 10 -20 0 -11 5 -20 10 -20 6 0 10 -9 10
-20 0 -11 5 -20 10 -20 6 0 10 -13 10 -28 0 -16 8 -34 20 -42 12 -8 20 -26 20
-42 0 -15 5 -28 10 -28 6 0 10 -9 10 -20 0 -11 5 -20 10 -20 6 0 10 -9 10 -20
0 -11 5 -20 10 -20 6 0 10 -9 10 -20 0 -11 5 -20 10 -20 6 0 10 -9 10 -20 0
-11 5 -20 10 -20 6 0 10 -9 10 -20 0 -11 5 -20 10 -20 6 0 10 -9 10 -20 0 -11
5 -20 10 -20 6 0 10 -9 10 -20 0 -11 5 -20 10 -20 6 0 10 -9 10 -20 0 -11 5
-20 10 -20 6 0 10 -9 10 -20 0 -11 5 -20 10 -20 6 0 10 -9 10 -20 0 -11 5 -20
10 -20 6 0 10 -9 10 -20 0 -11 5 -20 10 -20 6 0 10 -9 10 -20 0 -11 5 -20 10
-20 6 0 10 -9 10 -20 0 -11 5 -20 10 -20 6 0 10 -9 10 -20 0 -11 5 -20 10 -20
6 0 10 -13 10 -30 0 -16 5 -30 10 -30 6 0 10 -9 10 -20 0 -11 5 -20 10 -20 7
0 10 497 10 1470 0 973 3 1470 10 1470 6 0 10 7 10 16 0 45 -24 44 894 44 571
0 866 -3 866 -10 0 -6 27 -10 60 -10 33 0 60 -4 60 -10 0 -5 23 -10 50 -10 28
0 50 -4 50 -10 0 -5 14 -10 30 -10 17 0 30 -4 30 -10 0 -5 18 -10 40 -10 22 0
40 -4 40 -10 0 -5 9 -10 20 -10 11 0 20 -4 20 -10 0 -5 14 -10 30 -10 17 0 30
-4 30 -10 0 -5 9 -10 20 -10 11 0 20 -4 20 -10 0 -5 9 -10 20 -10 11 0 20 -4
20 -10 0 -5 9 -10 20 -10 11 0 20 -4 20 -10 0 -5 8 -10 18 -10 10 0 24 -9 32
-20 8 -11 21 -20 30 -20 9 0 22 -9 30 -20 8 -11 21 -20 28 -20 7 0 31 -18 52
-40 21 -22 43 -40 50 -40 14 0 80 -66 80 -80 0 -7 18 -29 40 -50 22 -21 40
-45 40 -52 0 -7 9 -20 20 -28 11 -8 20 -21 20 -30 0 -9 9 -22 20 -30 11 -8 20
-22 20 -32 0 -10 5 -18 10 -18 6 0 10 -9 10 -20 0 -11 5 -20 10 -20 6 0 10 -9
10 -20 0 -11 5 -20 10 -20 6 0 10 -9 10 -20 0 -11 5 -20 10 -20 6 0 10 -18 10
-40 0 -22 5 -40 10 -40 6 0 10 -13 10 -30 0 -16 5 -30 10 -30 6 0 10 -18 10
-40 0 -22 5 -40 10 -40 6 0 10 -30 10 -70 0 -40 4 -70 10 -70 6 0 10 -53 10
-140 0 -87 -4 -140 -10 -140 -6 0 -10 -30 -10 -70 0 -40 -4 -70 -10 -70 -5 0
-10 -18 -10 -40 0 -22 -4 -40 -10 -40 -5 0 -10 -13 -10 -30 0 -16 -4 -30 -10
-30 -5 0 -10 -13 -10 -30 0 -16 -4 -30 -10 -30 -5 0 -10 -9 -10 -20 0 -11 -4
-20 -10 -20 -5 0 -10 -13 -10 -28 0 -16 -8 -34 -20 -42 -11 -8 -20 -22 -20
-32 0 -10 -4 -18 -10 -18 -5 0 -10 -9 -10 -20 0 -11 -4 -20 -10 -20 -5 0 -10
-7 -10 -16 0 -8 -18 -33 -40 -54 -22 -21 -40 -43 -40 -49 0 -15 -126 -141
-141 -141 -6 0 -28 -18 -49 -40 -21 -22 -45 -40 -52 -40 -7 0 -20 -9 -28 -20
-8 -11 -22 -20 -32 -20 -10 0 -18 -4 -18 -10 0 -5 -9 -10 -20 -10 -11 0 -20
-4 -20 -10 0 -5 -9 -10 -20 -10 -11 0 -20 -4 -20 -10 0 -5 -9 -10 -20 -10 -11
0 -20 -4 -20 -10 0 -5 -9 -10 -20 -10 -11 0 -20 -4 -20 -10 0 -5 -13 -10 -30
-10 -16 0 -30 -4 -30 -10 0 -5 -13 -10 -30 -10 -16 0 -30 -4 -30 -10 0 -5 -13
-10 -30 -10 -16 0 -30 -4 -30 -10 0 -5 -18 -10 -40 -10 -22 0 -40 -4 -40 -10
0 -5 -18 -10 -40 -10 -22 0 -40 -4 -40 -10 0 -6 -37 -10 -90 -10 -53 0 -90 -4
-90 -10 0 -7 -160 -10 -460 -10 l-460 0 0 -415 0 -416 -25 -24 -24 -25 -681 0
-681 0 -34 35 c-19 19 -35 41 -35 50 0 8 -4 15 -10 15 -5 0 -10 9 -10 20 0 11
-4 20 -10 20 -5 0 -10 9 -10 20 0 11 -4 20 -10 20 -5 0 -10 9 -10 20 0 11 -4
20 -10 20 -5 0 -10 9 -10 20 0 11 -4 20 -10 20 -5 0 -10 9 -10 20 0 11 -4 20
-10 20 -5 0 -10 9 -10 20 0 11 -4 20 -10 20 -5 0 -10 9 -10 20 0 11 -4 20 -10
20 -5 0 -10 9 -10 20 0 11 -4 20 -10 20 -5 0 -10 9 -10 20 0 11 -4 20 -10 20
-5 0 -10 9 -10 20 0 11 -4 20 -10 20 -5 0 -10 9 -10 20 0 11 -4 20 -10 20 -5
0 -10 7 -10 16 0 45 21 44 -850 44 -871 0 -850 1 -850 -44 0 -9 -4 -16 -10
-16 -5 0 -10 -9 -10 -20 0 -11 -4 -20 -10 -20 -5 0 -10 -9 -10 -20 0 -11 -4
-20 -10 -20 -5 0 -10 -9 -10 -20 0 -11 -4 -20 -10 -20 -5 0 -10 -9 -10 -20 0
-11 -4 -20 -10 -20 -5 0 -10 -9 -10 -20 0 -11 -4 -20 -10 -20 -5 0 -10 -9 -10
-20 0 -11 -4 -20 -10 -20 -5 0 -10 -9 -10 -20 0 -11 -4 -20 -10 -20 -5 0 -10
-13 -10 -30 0 -16 -4 -30 -10 -30 -5 0 -10 -9 -10 -20 0 -11 -4 -20 -10 -20
-5 0 -10 -9 -10 -20 0 -11 -4 -20 -10 -20 -5 0 -10 -9 -10 -20 0 -11 -4 -20
-10 -20 -5 0 -10 -7 -10 -15 0 -9 -11 -27 -25 -40 l-24 -25 -391 0 c-326 0
-394 2 -406 14 -16 17 -19 46 -4 46 6 0 10 14 10 30 0 17 5 30 10 30 6 0 10 9
10 20 0 11 5 20 10 20 6 0 10 9 10 20 0 11 5 20 10 20 6 0 10 9 10 20 0 11 5
20 10 20 6 0 10 9 10 20 0 11 5 20 10 20 6 0 10 9 10 20 0 11 5 20 10 20 6 0
10 9 10 20 0 11 5 20 10 20 6 0 10 9 10 20 0 11 5 20 10 20 6 0 10 13 10 28 0
16 8 34 20 42 12 8 20 26 20 42 0 15 5 28 10 28 6 0 10 9 10 20 0 11 5 20 10
20 6 0 10 9 10 20 0 11 5 20 10 20 6 0 10 9 10 20 0 11 5 20 10 20 6 0 10 9
10 20 0 11 5 20 10 20 6 0 10 9 10 20 0 11 5 20 10 20 6 0 10 9 10 20 0 11 5
20 10 20 6 0 10 9 10 20 0 11 5 20 10 20 6 0 10 9 10 20 0 11 5 20 10 20 6 0
10 9 10 20 0 11 5 20 10 20 6 0 10 9 10 20 0 11 5 20 10 20 6 0 10 9 10 20 0
11 5 20 10 20 6 0 10 9 10 20 0 11 5 20 10 20 6 0 10 9 10 20 0 11 5 20 10 20
6 0 10 9 10 20 0 11 5 20 10 20 6 0 10 14 10 30 0 17 5 30 10 30 6 0 10 9 10
20 0 11 5 20 10 20 6 0 10 9 10 20 0 11 5 20 10 20 6 0 10 9 10 20 0 11 5 20
10 20 6 0 10 9 10 20 0 11 5 20 10 20 6 0 10 9 10 20 0 11 5 20 10 20 6 0 10
9 10 20 0 11 5 20 10 20 6 0 10 9 10 20 0 11 5 20 10 20 6 0 10 9 10 20 0 11
5 20 10 20 6 0 10 9 10 20 0 11 5 20 10 20 6 0 10 9 10 20 0 11 5 20 10 20 6
0 10 9 10 20 0 11 5 20 10 20 6 0 10 9 10 20 0 11 5 20 10 20 6 0 10 9 10 20
0 11 5 20 10 20 6 0 10 9 10 20 0 11 5 20 10 20 6 0 10 9 10 20 0 11 5 20 10
20 6 0 10 13 10 28 0 16 8 34 20 42 11 8 20 26 20 40 0 14 9 32 20 40 12 8 20
26 20 42 0 15 5 28 10 28 6 0 10 9 10 20 0 11 5 20 10 20 6 0 10 9 10 20 0 11
5 20 10 20 6 0 10 9 10 20 0 11 5 20 10 20 6 0 10 9 10 20 0 11 5 20 10 20 6
0 10 9 10 20 0 11 5 20 10 20 6 0 10 9 10 20 0 11 5 20 10 20 6 0 10 9 10 20
0 11 5 20 10 20 6 0 10 9 10 20 0 11 5 20 10 20 6 0 10 9 10 20 0 11 5 20 10
20 6 0 10 9 10 20 0 11 5 20 10 20 6 0 10 9 10 20 0 11 5 20 10 20 6 0 10 9
10 20 0 11 5 20 10 20 6 0 10 9 10 20 0 11 5 20 10 20 6 0 10 13 10 28 0 16 8
34 20 42 12 8 20 26 20 42 0 15 5 28 10 28 6 0 10 9 10 20 0 11 5 20 10 20 6
0 10 9 10 20 0 11 5 20 10 20 6 0 10 9 10 20 0 11 5 20 10 20 6 0 10 9 10 20
0 11 5 20 10 20 6 0 10 9 10 20 0 11 5 20 10 20 6 0 10 9 10 20 0 11 5 20 10
20 6 0 10 9 10 20 0 11 5 20 10 20 6 0 10 9 10 20 0 11 5 20 10 20 6 0 10 9
10 20 0 11 5 20 10 20 6 0 10 9 10 20 0 11 5 20 10 20 6 0 10 9 10 20 0 11 5
20 10 20 6 0 10 9 10 20 0 11 5 20 10 20 6 0 10 9 10 20 0 11 5 20 10 20 6 0
10 9 10 20 0 11 5 20 10 20 6 0 10 9 10 20 0 11 5 20 10 20 6 0 10 14 10 30 0
17 5 30 10 30 6 0 10 9 10 20 0 11 5 20 10 20 6 0 10 9 10 20 0 11 5 20 10 20
6 0 10 9 10 20 0 11 5 20 10 20 6 0 10 9 10 20 0 20 7 20 306 20 251 0 308 -3
320 -14z m-586 -3996 c0 -6 37 -10 90 -10 53 0 90 -4 90 -10 0 -6 30 -10 70
-10 40 0 70 -4 70 -10 0 -5 18 -10 40 -10 22 0 40 -4 40 -10 0 -5 18 -10 40
-10 22 0 40 -4 40 -10 0 -5 14 -10 30 -10 17 0 30 -4 30 -10 0 -5 14 -10 30
-10 17 0 30 -4 30 -10 0 -5 9 -10 20 -10 11 0 20 -4 20 -10 0 -5 9 -10 20 -10
11 0 20 -4 20 -10 0 -5 9 -10 20 -10 11 0 20 -4 20 -10 0 -5 8 -10 18 -10 10
0 24 -9 32 -20 8 -11 21 -20 30 -20 9 0 22 -9 30 -20 8 -11 20 -20 27 -20 17
0 163 -146 163 -163 0 -7 9 -19 20 -27 11 -8 20 -21 20 -30 0 -9 9 -22 20 -30
11 -8 20 -22 20 -32 0 -10 5 -18 10 -18 6 0 10 -9 10 -20 0 -11 5 -20 10 -20
6 0 10 -13 10 -30 0 -16 5 -30 10 -30 6 0 10 -18 10 -40 0 -22 5 -40 10 -40 6
0 10 -42 10 -105 0 -99 -2 -107 -25 -130 l-24 -25 -301 0 c-316 0 -330 2 -330
44 0 9 -4 16 -10 16 -5 0 -10 14 -10 30 0 17 -4 30 -10 30 -5 0 -10 13 -10 28
0 16 -8 34 -20 42 -11 8 -20 20 -20 28 0 7 -16 28 -35 47 -19 19 -40 35 -47
35 -8 0 -20 9 -28 20 -8 12 -26 20 -42 20 -15 0 -28 5 -28 10 0 6 -9 10 -20
10 -11 0 -20 5 -20 10 0 6 -13 10 -30 10 -16 0 -30 5 -30 10 0 6 -22 10 -50
10 -27 0 -50 5 -50 10 0 6 -73 10 -200 10 -127 0 -200 -4 -200 -10 0 -5 -18
-10 -40 -10 -22 0 -40 -4 -40 -10 0 -5 -18 -10 -40 -10 -22 0 -40 -4 -40 -10
0 -5 -9 -10 -20 -10 -11 0 -20 -4 -20 -10 0 -5 -13 -10 -28 -10 -16 0 -34 -8
-42 -20 -8 -11 -20 -20 -27 -20 -19 0 -123 -106 -123 -125 0 -8 -4 -15 -10
-15 -5 0 -10 -9 -10 -20 0 -11 -4 -20 -10 -20 -6 0 -10 -33 -10 -80 0 -47 4
-80 10 -80 6 0 10 -9 10 -20 0 -11 5 -20 10 -20 6 0 10 -7 10 -16 0 -20 24
-44 44 -44 9 0 16 -4 16 -10 0 -5 9 -10 20 -10 11 0 20 -4 20 -10 0 -5 9 -10
20 -10 11 0 20 -4 20 -10 0 -5 18 -10 40 -10 22 0 40 -4 40 -10 0 -6 37 -10
90 -10 53 0 90 -4 90 -10 0 -6 50 -10 130 -10 80 0 130 -4 130 -10 0 -6 47
-10 120 -10 73 0 120 -4 120 -10 0 -6 47 -10 120 -10 73 0 120 -4 120 -10 0
-6 30 -10 70 -10 40 0 70 -4 70 -10 0 -5 23 -10 50 -10 28 0 50 -4 50 -10 0
-5 18 -10 40 -10 22 0 40 -4 40 -10 0 -5 14 -10 30 -10 17 0 30 -4 30 -10 0
-5 14 -10 30 -10 17 0 30 -4 30 -10 0 -5 9 -10 20 -10 11 0 20 -4 20 -10 0 -5
13 -10 28 -10 16 0 34 -8 42 -20 8 -11 22 -20 32 -20 10 0 18 -4 18 -10 0 -5
7 -10 16 -10 9 0 29 -13 44 -30 15 -16 33 -30 40 -30 6 0 29 -18 50 -40 21
-22 41 -40 44 -40 3 0 6 45 6 100 0 60 4 100 10 100 6 0 10 30 10 70 0 40 4
70 10 70 6 0 10 23 10 50 0 28 5 50 10 50 6 0 10 18 10 40 0 22 5 40 10 40 6
0 10 14 10 30 0 17 5 30 10 30 6 0 10 14 10 30 0 17 5 30 10 30 6 0 10 9 10
20 0 11 5 20 10 20 6 0 10 14 10 30 0 17 5 30 10 30 6 0 10 9 10 20 0 11 5 20
10 20 6 0 10 8 10 18 0 10 9 24 20 32 11 8 20 22 20 32 0 10 5 18 10 18 6 0
10 8 10 18 0 10 9 24 20 32 11 8 20 21 20 28 0 8 13 27 30 42 17 15 30 33 30
39 0 15 226 241 241 241 6 0 24 14 39 30 15 17 35 30 44 30 9 0 16 5 16 10 0
6 8 10 18 10 10 0 24 9 32 20 8 11 22 20 32 20 10 0 18 5 18 10 0 6 9 10 20
10 11 0 20 5 20 10 0 6 9 10 20 10 11 0 20 5 20 10 0 6 9 10 20 10 11 0 20 5
20 10 0 6 9 10 20 10 11 0 20 5 20 10 0 6 9 10 20 10 11 0 20 5 20 10 0 6 14
10 30 10 17 0 30 5 30 10 0 6 14 10 30 10 17 0 30 5 30 10 0 6 14 10 30 10 17
0 30 5 30 10 0 6 18 10 40 10 22 0 40 5 40 10 0 6 27 10 60 10 33 0 60 4 60
10 0 6 33 10 80 10 47 0 80 4 80 10 0 6 53 10 140 10 87 0 140 -4 140 -10 0
-6 33 -10 80 -10 47 0 80 -4 80 -10 0 -6 27 -10 60 -10 33 0 60 -4 60 -10 0
-5 18 -10 40 -10 22 0 40 -4 40 -10 0 -5 18 -10 40 -10 22 0 40 -4 40 -10 0
-5 14 -10 30 -10 17 0 30 -4 30 -10 0 -5 14 -10 30 -10 17 0 30 -4 30 -10 0
-5 9 -10 20 -10 11 0 20 -4 20 -10 0 -5 9 -10 20 -10 11 0 20 -4 20 -10 0 -5
9 -10 20 -10 11 0 20 -4 20 -10 0 -5 9 -10 20 -10 11 0 20 -4 20 -10 0 -5 9
-10 20 -10 11 0 20 -4 20 -10 0 -5 8 -10 18 -10 10 0 24 -9 32 -20 8 -11 21
-20 28 -20 8 0 27 -13 42 -30 15 -16 33 -30 39 -30 15 0 221 -206 221 -221 0
-6 13 -24 30 -39 17 -15 30 -35 30 -44 0 -9 5 -16 10 -16 6 0 10 -8 10 -18 0
-10 9 -24 20 -32 11 -8 20 -22 20 -32 0 -10 5 -18 10 -18 6 0 10 -9 10 -20 0
-11 5 -20 10 -20 6 0 10 -13 10 -30 0 -16 5 -30 10 -30 6 0 10 -13 10 -30 0
-16 5 -30 10 -30 6 0 10 -13 10 -30 0 -16 5 -30 10 -30 6 0 10 -22 10 -50 0
-27 5 -50 10 -50 7 0 10 172 10 496 0 416 2 498 14 510 12 11 69 14 326 14
l311 0 24 -25 25 -24 0 -1481 0 -1481 -25 -24 -24 -25 -306 0 c-197 0 -305 4
-305 10 0 6 -9 10 -20 10 -20 0 -20 7 -20 470 0 307 -3 470 -10 470 -5 0 -10
-22 -10 -50 0 -27 -4 -50 -10 -50 -5 0 -10 -13 -10 -30 0 -16 -4 -30 -10 -30
-5 0 -10 -13 -10 -30 0 -16 -4 -30 -10 -30 -5 0 -10 -9 -10 -20 0 -11 -4 -20
-10 -20 -5 0 -10 -9 -10 -20 0 -11 -4 -20 -10 -20 -5 0 -10 -9 -10 -20 0 -11
-4 -20 -10 -20 -5 0 -10 -8 -10 -18 0 -10 -9 -24 -20 -32 -11 -8 -20 -21 -20
-28 0 -8 -14 -27 -30 -42 -17 -15 -30 -33 -30 -39 0 -15 -126 -141 -141 -141
-6 0 -28 -18 -49 -40 -21 -22 -45 -40 -52 -40 -7 0 -20 -9 -28 -20 -8 -11 -22
-20 -32 -20 -10 0 -18 -4 -18 -10 0 -5 -9 -10 -20 -10 -11 0 -20 -4 -20 -10 0
-5 -9 -10 -20 -10 -11 0 -20 -4 -20 -10 0 -5 -9 -10 -20 -10 -11 0 -20 -4 -20
-10 0 -5 -9 -10 -20 -10 -11 0 -20 -4 -20 -10 0 -5 -9 -10 -20 -10 -11 0 -20
-4 -20 -10 0 -5 -13 -10 -30 -10 -16 0 -30 -4 -30 -10 0 -5 -13 -10 -30 -10
-16 0 -30 -4 -30 -10 0 -5 -13 -10 -30 -10 -16 0 -30 -4 -30 -10 0 -5 -18 -10
-40 -10 -22 0 -40 -4 -40 -10 0 -5 -18 -10 -40 -10 -22 0 -40 -4 -40 -10 0 -6
-30 -10 -70 -10 -40 0 -70 -4 -70 -10 0 -6 -50 -10 -130 -10 -80 0 -130 -4
-130 -10 0 -5 -13 -10 -30 -10 -16 0 -30 5 -30 10 0 6 -47 10 -120 10 -73 0
-120 4 -120 10 0 6 -27 10 -60 10 -33 0 -60 4 -60 10 0 6 -18 10 -40 10 -22 0
-40 5 -40 10 0 6 -18 10 -40 10 -22 0 -40 5 -40 10 0 6 -13 10 -30 10 -16 0
-30 5 -30 10 0 6 -9 10 -20 10 -11 0 -20 5 -20 10 0 6 -13 10 -30 10 -16 0
-30 5 -30 10 0 6 -9 10 -20 10 -11 0 -20 5 -20 10 0 6 -9 10 -20 10 -11 0 -20
5 -20 10 0 6 -9 10 -20 10 -11 0 -20 5 -20 10 0 6 -9 10 -20 10 -11 0 -20 5
-20 10 0 6 -8 10 -18 10 -10 0 -24 9 -32 20 -8 11 -21 20 -30 20 -9 0 -22 9
-30 20 -8 11 -21 20 -28 20 -8 0 -27 14 -42 30 -15 17 -33 30 -39 30 -15 0
-201 186 -201 201 0 6 -18 28 -40 49 -22 21 -40 45 -40 52 0 7 -9 20 -20 28
-11 8 -20 22 -20 32 0 10 -4 18 -10 18 -5 0 -10 9 -10 20 0 11 -4 20 -10 20
-5 0 -10 7 -10 16 0 20 -24 44 -44 44 -12 0 -16 -11 -16 -50 0 -27 -4 -50 -10
-50 -5 0 -10 -9 -10 -20 0 -11 -4 -20 -10 -20 -5 0 -10 -13 -10 -30 0 -16 -4
-30 -10 -30 -5 0 -10 -9 -10 -20 0 -11 -4 -20 -10 -20 -5 0 -10 -8 -10 -18 0
-10 -9 -24 -20 -32 -11 -8 -20 -21 -20 -28 0 -7 -18 -31 -40 -52 -22 -21 -40
-43 -40 -49 0 -15 -86 -101 -101 -101 -6 0 -24 -13 -39 -30 -15 -16 -34 -30
-42 -30 -7 0 -20 -9 -28 -20 -8 -11 -21 -20 -30 -20 -9 0 -22 -9 -30 -20 -8
-11 -22 -20 -32 -20 -10 0 -18 -4 -18 -10 0 -5 -9 -10 -20 -10 -11 0 -20 -4
-20 -10 0 -5 -13 -10 -30 -10 -16 0 -30 -4 -30 -10 0 -5 -9 -10 -20 -10 -11 0
-20 -4 -20 -10 0 -5 -13 -10 -30 -10 -16 0 -30 -4 -30 -10 0 -5 -13 -10 -30
-10 -16 0 -30 -4 -30 -10 0 -5 -13 -10 -30 -10 -16 0 -30 -4 -30 -10 0 -5 -22
-10 -50 -10 -27 0 -50 -4 -50 -10 0 -6 -27 -10 -60 -10 -33 0 -60 -4 -60 -10
0 -6 -53 -10 -140 -10 -87 0 -140 -4 -140 -10 0 -5 -18 -10 -40 -10 -22 0 -40
5 -40 10 0 6 -53 10 -140 10 -87 0 -140 4 -140 10 0 6 -30 10 -70 10 -40 0
-70 4 -70 10 0 6 -18 10 -40 10 -22 0 -40 5 -40 10 0 6 -18 10 -40 10 -22 0
-40 5 -40 10 0 6 -13 10 -30 10 -16 0 -30 5 -30 10 0 6 -13 10 -30 10 -16 0
-30 5 -30 10 0 6 -13 10 -30 10 -16 0 -30 5 -30 10 0 6 -9 10 -20 10 -11 0
-20 5 -20 10 0 6 -13 10 -28 10 -16 0 -34 8 -42 20 -8 11 -22 20 -32 20 -10 0
-18 5 -18 10 0 6 -9 10 -20 10 -11 0 -20 5 -20 10 0 6 -7 10 -16 10 -9 0 -29
14 -44 30 -15 17 -33 30 -39 30 -16 0 -201 187 -201 203 0 7 -9 19 -20 27 -11
8 -20 22 -20 32 0 10 -4 18 -10 18 -5 0 -10 9 -10 20 0 11 -4 20 -10 20 -5 0
-10 9 -10 20 0 11 -4 20 -10 20 -5 0 -10 14 -10 30 0 17 -4 30 -10 30 -5 0
-10 18 -10 40 0 22 -4 40 -10 40 -6 0 -10 45 -10 116 0 119 8 144 44 144 9 0
16 5 16 10 0 6 103 10 290 10 187 0 290 -4 290 -10 0 -5 9 -10 20 -10 13 0 20
-7 20 -20 0 -11 5 -20 10 -20 6 0 10 -18 10 -40 0 -22 5 -40 10 -40 6 0 10 -9
10 -20 0 -11 5 -20 10 -20 6 0 10 -9 10 -20 0 -11 5 -20 10 -20 6 0 10 -7 10
-15 0 -20 125 -145 145 -145 8 0 15 -4 15 -10 0 -5 9 -10 20 -10 11 0 20 -4
20 -10 0 -5 9 -10 20 -10 11 0 20 -4 20 -10 0 -5 14 -10 30 -10 17 0 30 -4 30
-10 0 -5 18 -10 40 -10 22 0 40 -4 40 -10 0 -6 27 -10 60 -10 33 0 60 -4 60
-10 0 -6 70 -10 190 -10 120 0 190 4 190 10 0 6 23 10 50 10 28 0 50 5 50 10
0 6 18 10 40 10 22 0 40 5 40 10 0 6 14 10 30 10 17 0 30 5 30 10 0 6 9 10 20
10 11 0 20 5 20 10 0 6 9 10 20 10 11 0 20 5 20 10 0 6 7 10 15 10 20 0 125
105 125 125 0 8 5 15 10 15 6 0 10 9 10 20 0 11 5 20 10 20 6 0 10 39 10 98 0
86 -2 99 -20 112 -11 8 -20 20 -20 28 0 18 -46 62 -65 62 -8 0 -15 5 -15 10 0
6 -9 10 -20 10 -11 0 -20 5 -20 10 0 6 -9 10 -20 10 -11 0 -20 5 -20 10 0 6
-18 10 -40 10 -22 0 -40 5 -40 10 0 6 -37 10 -90 10 -53 0 -90 4 -90 10 0 6
-40 10 -100 10 -60 0 -100 4 -100 10 0 6 -53 10 -140 10 -87 0 -140 4 -140 10
0 6 -40 10 -100 10 -60 0 -100 4 -100 10 0 6 -40 10 -100 10 -60 0 -100 4
-100 10 0 6 -22 10 -50 10 -27 0 -50 5 -50 10 0 6 -18 10 -40 10 -22 0 -40 5
-40 10 0 6 -13 10 -30 10 -16 0 -30 5 -30 10 0 6 -13 10 -30 10 -16 0 -30 5
-30 10 0 6 -9 10 -20 10 -11 0 -20 5 -20 10 0 6 -13 10 -28 10 -16 0 -34 8
-42 20 -8 11 -22 20 -32 20 -10 0 -18 5 -18 10 0 6 -7 10 -16 10 -9 0 -29 13
-44 30 -15 17 -33 30 -39 30 -16 0 -101 87 -101 103 0 7 -9 19 -20 27 -11 8
-20 22 -20 32 0 10 -4 18 -10 18 -5 0 -10 9 -10 20 0 11 -4 20 -10 20 -5 0
-10 9 -10 20 0 11 -4 20 -10 20 -5 0 -10 9 -10 20 0 11 -4 20 -10 20 -5 0 -10
23 -10 50 0 28 -4 50 -10 50 -6 0 -10 57 -10 150 0 93 4 150 10 150 6 0 10 23
10 50 0 28 5 50 10 50 6 0 10 14 10 30 0 17 5 30 10 30 6 0 10 9 10 20 0 11 5
20 10 20 6 0 10 9 10 20 0 11 5 20 10 20 6 0 10 9 10 20 0 11 5 20 10 20 6 0
10 9 10 20 0 11 5 20 10 20 6 0 10 7 10 16 0 9 14 29 30 44 17 15 30 33 30 39
0 15 126 141 141 141 6 0 24 14 39 30 15 17 34 30 42 30 7 0 20 9 28 20 8 11
22 20 32 20 10 0 18 5 18 10 0 6 9 10 20 10 11 0 20 5 20 10 0 6 9 10 20 10
11 0 20 5 20 10 0 6 9 10 20 10 11 0 20 5 20 10 0 6 9 10 20 10 11 0 20 5 20
10 0 6 14 10 30 10 17 0 30 5 30 10 0 6 14 10 30 10 17 0 30 5 30 10 0 6 14
10 30 10 17 0 30 5 30 10 0 6 18 10 40 10 22 0 40 5 40 10 0 6 27 10 60 10 33
0 60 4 60 10 0 6 37 10 90 10 53 0 90 4 90 10 0 6 57 10 150 10 93 0 150 -4
150 -10z"/>
<path d="M5100 6620 l0 -640 430 0 c280 0 430 3 430 10 0 6 23 10 50 10 28 0
50 5 50 10 0 6 14 10 30 10 17 0 30 5 30 10 0 6 9 10 20 10 11 0 20 5 20 10 0
6 9 10 20 10 11 0 20 5 20 10 0 6 8 10 18 10 10 0 24 9 32 20 8 11 20 20 27
20 17 0 103 86 103 103 0 7 9 19 20 27 11 8 20 22 20 32 0 10 5 18 10 18 6 0
10 9 10 20 0 11 5 20 10 20 6 0 10 14 10 30 0 17 5 30 10 30 6 0 10 18 10 40
0 22 5 40 10 40 6 0 10 53 10 140 0 87 -4 140 -10 140 -5 0 -10 18 -10 40 0
22 -4 40 -10 40 -5 0 -10 9 -10 20 0 11 -4 20 -10 20 -5 0 -10 9 -10 20 0 11
-4 20 -10 20 -5 0 -10 9 -10 20 0 11 -4 20 -10 20 -5 0 -10 7 -10 15 0 19
-124 145 -143 145 -7 0 -19 9 -27 20 -8 11 -22 20 -32 20 -10 0 -18 5 -18 10
0 6 -9 10 -20 10 -11 0 -20 5 -20 10 0 6 -13 10 -30 10 -16 0 -30 5 -30 10 0
6 -13 10 -30 10 -16 0 -30 5 -30 10 0 6 -33 10 -80 10 -47 0 -80 4 -80 10 0 6
-133 10 -380 10 l-380 0 0 -640z"/>
<path d="M2520 6900 c0 -11 -4 -20 -10 -20 -5 0 -10 -13 -10 -30 0 -16 -4 -30
-10 -30 -5 0 -10 -9 -10 -20 0 -11 -4 -20 -10 -20 -5 0 -10 -13 -10 -30 0 -16
-4 -30 -10 -30 -5 0 -10 -13 -10 -30 0 -16 -4 -30 -10 -30 -5 0 -10 -13 -10
-30 0 -16 -4 -30 -10 -30 -5 0 -10 -9 -10 -20 0 -11 -4 -20 -10 -20 -5 0 -10
-13 -10 -30 0 -16 -4 -30 -10 -30 -5 0 -10 -9 -10 -20 0 -11 -4 -20 -10 -20
-5 0 -10 -9 -10 -20 0 -11 -4 -20 -10 -20 -5 0 -10 -9 -10 -20 0 -11 -4 -20
-10 -20 -5 0 -10 -13 -10 -30 0 -16 -4 -30 -10 -30 -5 0 -10 -9 -10 -20 0 -11
-4 -20 -10 -20 -5 0 -10 -9 -10 -20 0 -11 -4 -20 -10 -20 -5 0 -10 -9 -10 -20
0 -11 -4 -20 -10 -20 -5 0 -10 -9 -10 -20 0 -11 -4 -20 -10 -20 -5 0 -10 -9
-10 -20 0 -11 -4 -20 -10 -20 -5 0 -10 -9 -10 -20 0 -11 -4 -20 -10 -20 -5 0
-10 -9 -10 -20 0 -11 -4 -20 -10 -20 -5 0 -10 -9 -10 -20 0 -11 -4 -20 -10
-20 -5 0 -10 -9 -10 -20 0 -11 -4 -20 -10 -20 -5 0 -10 -9 -10 -20 0 -11 -4
-20 -10 -20 -5 0 -10 -9 -10 -20 0 -11 -4 -20 -10 -20 -5 0 -10 -9 -10 -20 0
-11 -4 -20 -10 -20 -5 0 -10 -13 -10 -30 0 -16 -4 -30 -10 -30 -5 0 -10 -9
-10 -20 0 -11 -4 -20 -10 -20 -5 0 -10 -9 -10 -20 0 -11 -4 -20 -10 -20 -5 0
-10 -4 -10 -10 0 -7 190 -10 550 -10 l550 0 0 28 c0 16 -8 34 -20 42 -12 8
-20 26 -20 42 0 15 -4 28 -10 28 -5 0 -10 9 -10 20 0 11 -4 20 -10 20 -5 0
-10 9 -10 20 0 11 -4 20 -10 20 -5 0 -10 9 -10 20 0 11 -4 20 -10 20 -5 0 -10
9 -10 20 0 11 -4 20 -10 20 -5 0 -10 9 -10 20 0 11 -4 20 -10 20 -5 0 -10 9
-10 20 0 11 -4 20 -10 20 -5 0 -10 9 -10 20 0 11 -4 20 -10 20 -5 0 -10 9 -10
20 0 11 -4 20 -10 20 -5 0 -10 9 -10 20 0 11 -4 20 -10 20 -5 0 -10 9 -10 20
0 11 -4 20 -10 20 -5 0 -10 9 -10 20 0 11 -4 20 -10 20 -5 0 -10 9 -10 20 0
11 -4 20 -10 20 -5 0 -10 9 -10 20 0 11 -4 20 -10 20 -5 0 -10 14 -10 30 0 17
-4 30 -10 30 -5 0 -10 9 -10 20 0 11 -4 20 -10 20 -5 0 -10 9 -10 20 0 11 -4
20 -10 20 -5 0 -10 9 -10 20 0 11 -4 20 -10 20 -5 0 -10 14 -10 30 0 17 -4 30
-10 30 -5 0 -10 14 -10 30 0 17 -4 30 -10 30 -5 0 -10 14 -10 30 0 17 -4 30
-10 30 -5 0 -10 9 -10 20 0 11 -4 20 -10 20 -5 0 -10 14 -10 30 0 17 -4 30
-10 30 -5 0 -10 14 -10 30 0 17 -4 30 -10 30 -5 0 -10 14 -10 30 0 23 -4 30
-20 30 -13 0 -20 -7 -20 -20z"/>
<path d="M4900 3310 c0 -5 -18 -10 -40 -10 -22 0 -40 -4 -40 -10 0 -5 -13 -10
-30 -10 -16 0 -30 -4 -30 -10 0 -5 -13 -10 -30 -10 -16 0 -30 -4 -30 -10 0 -5
-9 -10 -20 -10 -11 0 -20 -4 -20 -10 0 -5 -9 -10 -20 -10 -11 0 -20 -4 -20
-10 0 -5 -8 -10 -18 -10 -10 0 -24 -9 -32 -20 -8 -11 -21 -20 -30 -20 -9 0
-22 -9 -30 -20 -8 -11 -20 -20 -27 -20 -16 0 -123 -105 -123 -121 0 -6 -13
-24 -30 -39 -16 -15 -30 -34 -30 -42 0 -7 -9 -20 -20 -28 -11 -8 -20 -22 -20
-32 0 -10 -4 -18 -10 -18 -5 0 -10 -9 -10 -20 0 -11 -4 -20 -10 -20 -5 0 -10
-9 -10 -20 0 -11 -4 -20 -10 -20 -5 0 -10 -13 -10 -30 0 -16 -4 -30 -10 -30
-5 0 -10 -13 -10 -30 0 -16 -4 -30 -10 -30 -5 0 -10 -18 -10 -40 0 -22 -4 -40
-10 -40 -6 0 -10 -33 -10 -80 0 -47 -4 -80 -10 -80 -6 0 -10 -30 -10 -70 0
-40 4 -70 10 -70 6 0 10 -33 10 -80 0 -47 4 -80 10 -80 6 0 10 -18 10 -40 0
-22 5 -40 10 -40 6 0 10 -13 10 -30 0 -16 5 -30 10 -30 6 0 10 -13 10 -30 0
-16 5 -30 10 -30 6 0 10 -9 10 -20 0 -11 5 -20 10 -20 6 0 10 -9 10 -20 0 -11
5 -20 10 -20 6 0 10 -8 10 -18 0 -10 9 -24 20 -32 11 -8 20 -21 20 -30 0 -9 9
-22 20 -30 11 -8 20 -20 20 -27 0 -17 126 -143 143 -143 7 0 19 -9 27 -20 8
-11 21 -20 30 -20 9 0 22 -9 30 -20 8 -11 22 -20 32 -20 10 0 18 -4 18 -10 0
-5 9 -10 20 -10 11 0 20 -4 20 -10 0 -5 9 -10 20 -10 11 0 20 -4 20 -10 0 -5
14 -10 30 -10 17 0 30 -4 30 -10 0 -5 18 -10 40 -10 22 0 40 -4 40 -10 0 -5
18 -10 40 -10 22 0 40 -4 40 -10 0 -6 60 -10 160 -10 100 0 160 4 160 10 0 6
23 10 50 10 28 0 50 5 50 10 0 6 18 10 40 10 22 0 40 5 40 10 0 6 14 10 30 10
17 0 30 5 30 10 0 6 9 10 20 10 11 0 20 5 20 10 0 6 9 10 20 10 11 0 20 5 20
10 0 6 8 10 18 10 10 0 24 9 32 20 8 11 20 20 27 20 19 0 163 146 163 165 0 8
5 15 10 15 6 0 10 8 10 18 0 10 9 24 20 32 12 8 20 26 20 42 0 15 5 28 10 28
6 0 10 14 10 30 0 17 5 30 10 30 6 0 10 20 10 45 0 35 6 52 25 70 l24 25 296
0 c190 0 295 -4 295 -10 0 -5 9 -10 20 -10 11 0 20 -4 20 -10 0 -5 5 -10 10
-10 6 0 10 123 10 350 0 193 -4 350 -8 350 -4 0 -14 -9 -22 -20 -14 -19 -26
-20 -318 -20 l-303 0 -24 25 c-19 18 -25 35 -25 70 0 25 -4 45 -10 45 -5 0
-10 14 -10 30 0 17 -4 30 -10 30 -5 0 -10 14 -10 30 0 17 -4 30 -10 30 -5 0
-10 9 -10 20 0 11 -4 20 -10 20 -5 0 -10 8 -10 18 0 10 -9 24 -20 32 -11 8
-20 20 -20 27 0 17 -146 163 -163 163 -7 0 -19 9 -27 20 -8 11 -22 20 -32 20
-10 0 -18 5 -18 10 0 6 -9 10 -20 10 -11 0 -20 5 -20 10 0 6 -9 10 -20 10 -11
0 -20 5 -20 10 0 6 -13 10 -30 10 -16 0 -30 5 -30 10 0 6 -13 10 -30 10 -16 0
-30 5 -30 10 0 6 -18 10 -40 10 -22 0 -40 5 -40 10 0 6 -67 10 -180 10 -113 0
-180 -4 -180 -10z"/>
</g>
</svg>
