<svg xmlns="http://www.w3.org/2000/svg" width="796" height="862" viewBox="0 0 796 862" version="1.1"><path d="M 0 431.001 L 0 862.002 398.250 861.751 L 796.500 861.500 796.751 430.750 L 797.002 -0 398.501 -0 L 0 0 0 431.001 M 0.495 431.500 C 0.495 668.550, 0.610 765.674, 0.750 647.332 C 0.890 528.989, 0.890 335.039, 0.750 216.332 C 0.610 97.624, 0.495 194.450, 0.495 431.500 M 32 429 L 32 820 398 820 L 764 820 764 429 L 764 38 398 38 L 32 38 32 429 M 46 429 L 46 806 398 806 L 750 806 750 429 L 750 52 398 52 L 46 52 46 429 M 223.250 71.496 C 222.563 72.277, 222 73.610, 222 74.458 C 222 75.306, 221.550 76, 221 76 C 220.450 76, 220 76.900, 220 78 C 220 79.100, 219.550 80, 219 80 C 218.450 80, 218 80.900, 218 82 C 218 83.100, 217.550 84, 217 84 C 216.450 84, 216 84.900, 216 86 C 216 87.100, 215.550 88, 215 88 C 214.450 88, 214 88.900, 214 90 C 214 91.100, 213.550 92, 213 92 C 212.450 92, 212 92.900, 212 94 C 212 95.100, 211.550 96, 211 96 C 210.450 96, 210 96.900, 210 98 C 210 99.100, 209.550 100, 209 100 C 208.450 100, 208 100.900, 208 102 C 208 103.100, 207.550 104, 207 104 C 206.450 104, 206 104.900, 206 106 C 206 107.100, 205.550 108, 205 108 C 204.450 108, 204 108.900, 204 110 C 204 111.100, 203.550 112, 203 112 C 202.450 112, 202 112.900, 202 114 C 202 115.100, 201.550 116, 201 116 C 200.450 116, 200 116.900, 200 118 C 200 119.100, 199.550 120, 199 120 C 198.450 120, 198 121.251, 198 122.779 C 198 124.411, 197.174 126.153, 196 127 C 194.826 127.847, 194 129.589, 194 131.221 C 194 132.749, 193.550 134, 193 134 C 192.450 134, 192 134.900, 192 136 C 192 137.100, 191.550 138, 191 138 C 190.450 138, 190 138.900, 190 140 C 190 141.100, 189.550 142, 189 142 C 188.450 142, 188 142.900, 188 144 C 188 145.100, 187.550 146, 187 146 C 186.450 146, 186 146.900, 186 148 C 186 149.100, 185.550 150, 185 150 C 184.450 150, 184 150.900, 184 152 C 184 153.100, 183.550 154, 183 154 C 182.450 154, 182 154.900, 182 156 C 182 157.100, 181.550 158, 181 158 C 180.450 158, 180 158.900, 180 160 C 180 161.100, 179.550 162, 179 162 C 178.450 162, 178 162.900, 178 164 C 178 165.100, 177.550 166, 177 166 C 176.450 166, 176 166.900, 176 168 C 176 169.100, 175.550 170, 175 170 C 174.450 170, 174 170.900, 174 172 C 174 173.100, 173.550 174, 173 174 C 172.450 174, 172 174.900, 172 176 C 172 177.100, 171.550 178, 171 178 C 170.450 178, 170 178.900, 170 180 C 170 181.100, 169.550 182, 169 182 C 168.450 182, 168 182.900, 168 184 C 168 185.100, 167.550 186, 167 186 C 166.450 186, 166 186.900, 166 188 C 166 189.100, 165.550 190, 165 190 C 164.450 190, 164 191.350, 164 193 C 164 194.650, 163.550 196, 163 196 C 162.450 196, 162 196.900, 162 198 C 162 199.100, 161.550 200, 161 200 C 160.450 200, 160 200.900, 160 202 C 160 203.100, 159.550 204, 159 204 C 158.450 204, 158 204.900, 158 206 C 158 207.100, 157.550 208, 157 208 C 156.450 208, 156 208.900, 156 210 C 156 211.100, 155.550 212, 155 212 C 154.450 212, 154 212.900, 154 214 C 154 215.100, 153.550 216, 153 216 C 152.450 216, 152 216.900, 152 218 C 152 219.100, 151.550 220, 151 220 C 150.450 220, 150 220.900, 150 222 C 150 223.100, 149.550 224, 149 224 C 148.450 224, 148 224.900, 148 226 C 148 227.100, 147.550 228, 147 228 C 146.450 228, 146 228.900, 146 230 C 146 231.100, 145.550 232, 145 232 C 144.450 232, 144 232.900, 144 234 C 144 235.100, 143.550 236, 143 236 C 142.450 236, 142 236.900, 142 238 C 142 239.100, 141.550 240, 141 240 C 140.450 240, 140 240.900, 140 242 C 140 243.100, 139.550 244, 139 244 C 138.450 244, 138 244.900, 138 246 C 138 247.100, 137.550 248, 137 248 C 136.450 248, 136 248.900, 136 250 C 136 251.100, 135.550 252, 135 252 C 134.450 252, 134 252.900, 134 254 C 134 255.100, 133.550 256, 133 256 C 132.450 256, 132 257.251, 132 258.779 C 132 260.411, 131.174 262.153, 130 263 C 128.826 263.847, 128 265.589, 128 267.221 C 128 268.749, 127.550 270, 127 270 C 126.450 270, 126 270.900, 126 272 C 126 273.100, 125.550 274, 125 274 C 124.450 274, 124 274.900, 124 276 C 124 277.100, 123.550 278, 123 278 C 122.450 278, 122 278.900, 122 280 C 122 281.100, 121.550 282, 121 282 C 120.450 282, 120 282.900, 120 284 C 120 285.100, 119.550 286, 119 286 C 118.450 286, 118 286.900, 118 288 C 118 289.100, 117.550 290, 117 290 C 116.450 290, 116 290.900, 116 292 C 116 293.100, 115.550 294, 115 294 C 114.450 294, 114 294.900, 114 296 C 114 297.100, 113.550 298, 113 298 C 112.450 298, 112 298.900, 112 300 C 112 301.100, 111.550 302, 111 302 C 110.450 302, 110 302.900, 110 304 C 110 305.100, 109.550 306, 109 306 C 108.450 306, 108 306.900, 108 308 C 108 309.100, 107.550 310, 107 310 C 106.450 310, 106 310.900, 106 312 C 106 313.100, 105.550 314, 105 314 C 104.450 314, 104 314.900, 104 316 C 104 317.100, 103.550 318, 103 318 C 102.450 318, 102 318.900, 102 320 C 102 321.100, 101.550 322, 101 322 C 100.450 322, 100 323.251, 100 324.779 C 100 326.411, 99.174 328.153, 98 329 C 96.826 329.847, 96 331.589, 96 333.221 C 96 334.749, 95.550 336, 95 336 C 94.450 336, 94 336.900, 94 338 C 94 339.100, 93.550 340, 93 340 C 92.450 340, 92 340.900, 92 342 C 92 343.100, 91.550 344, 91 344 C 90.450 344, 90 344.900, 90 346 C 90 347.100, 89.550 348, 89 348 C 88.450 348, 88 348.900, 88 350 C 88 351.100, 87.550 352, 87 352 C 86.450 352, 86 352.900, 86 354 C 86 355.100, 85.550 356, 85 356 C 84.450 356, 84 356.900, 84 358 C 84 359.100, 83.550 360, 83 360 C 82.450 360, 82 360.900, 82 362 C 82 363.100, 81.550 364, 81 364 C 80.450 364, 80 364.900, 80 366 C 80 367.100, 79.550 368, 79 368 C 78.450 368, 78 368.900, 78 370 C 78 371.100, 77.550 372, 77 372 C 76.450 372, 76 372.900, 76 374 C 76 375.100, 75.550 376, 75 376 C 74.450 376, 74 376.900, 74 378 C 74 379.100, 73.550 380, 73 380 C 72.450 380, 72 380.900, 72 382 C 72 383.100, 71.550 384, 71 384 C 70.450 384, 70 384.900, 70 386 C 70 387.100, 69.550 388, 69 388 C 68.450 388, 68 388.900, 68 390 C 68 391.100, 67.550 392, 67 392 C 66.450 392, 66 392.900, 66 394 C 66 395.100, 65.550 396, 65 396 C 64.450 396, 64 397.251, 64 398.779 C 64 400.411, 63.174 402.153, 62 403 C 60.826 403.847, 60 405.589, 60 407.221 C 60 408.749, 59.550 410, 59 410 C 57.515 410, 57.790 412.933, 59.429 414.571 C 60.618 415.761, 67.410 416, 100 416 C 141.177 416, 142 415.913, 142 411.571 C 142 410.707, 142.450 410, 143 410 C 143.550 410, 144 409.100, 144 408 C 144 406.900, 144.450 406, 145 406 C 145.550 406, 146 405.100, 146 404 C 146 402.900, 146.450 402, 147 402 C 147.550 402, 148 401.100, 148 400 C 148 398.900, 148.450 398, 149 398 C 149.550 398, 150 397.100, 150 396 C 150 394.900, 150.450 394, 151 394 C 151.550 394, 152 393.100, 152 392 C 152 390.900, 152.450 390, 153 390 C 153.550 390, 154 389.100, 154 388 C 154 386.900, 154.450 386, 155 386 C 155.550 386, 156 385.100, 156 384 C 156 382.900, 156.450 382, 157 382 C 157.550 382, 158 381.100, 158 380 C 158 378.900, 158.450 378, 159 378 C 159.550 378, 160 376.650, 160 375 C 160 373.350, 160.450 372, 161 372 C 161.550 372, 162 371.100, 162 370 C 162 368.900, 162.450 368, 163 368 C 163.550 368, 164 367.100, 164 366 C 164 364.900, 164.450 364, 165 364 C 165.550 364, 166 363.100, 166 362 C 166 360.900, 166.450 360, 167 360 C 167.550 360, 168 359.100, 168 358 C 168 356.016, 168.667 356, 253 356 C 337.333 356, 338 356.016, 338 358 C 338 359.100, 338.450 360, 339 360 C 339.550 360, 340 360.900, 340 362 C 340 363.100, 340.450 364, 341 364 C 341.550 364, 342 364.900, 342 366 C 342 367.100, 342.450 368, 343 368 C 343.550 368, 344 368.900, 344 370 C 344 371.100, 344.450 372, 345 372 C 345.550 372, 346 372.900, 346 374 C 346 375.100, 346.450 376, 347 376 C 347.550 376, 348 376.900, 348 378 C 348 379.100, 348.450 380, 349 380 C 349.550 380, 350 380.900, 350 382 C 350 383.100, 350.450 384, 351 384 C 351.550 384, 352 384.900, 352 386 C 352 387.100, 352.450 388, 353 388 C 353.550 388, 354 388.900, 354 390 C 354 391.100, 354.450 392, 355 392 C 355.550 392, 356 392.900, 356 394 C 356 395.100, 356.450 396, 357 396 C 357.550 396, 358 396.900, 358 398 C 358 399.100, 358.450 400, 359 400 C 359.550 400, 360 400.900, 360 402 C 360 403.100, 360.450 404, 361 404 C 361.550 404, 362 404.900, 362 406 C 362 407.100, 362.450 408, 363 408 C 363.550 408, 364 408.695, 364 409.545 C 364 410.395, 365.105 412.195, 366.455 413.545 L 368.909 416 437 416 L 505.091 416 507.545 413.545 L 510 411.091 510 369.545 L 510 328 554 328 C 582.667 328, 598 327.652, 598 327 C 598 326.407, 601.667 326, 607 326 C 612.333 326, 616 325.593, 616 325 C 616 324.450, 618.250 324, 621 324 C 623.750 324, 626 323.550, 626 323 C 626 322.450, 628.250 322, 631 322 C 633.750 322, 636 321.550, 636 321 C 636 320.450, 637.350 320, 639 320 C 640.650 320, 642 319.550, 642 319 C 642 318.450, 643.350 318, 645 318 C 646.650 318, 648 317.550, 648 317 C 648 316.450, 648.900 316, 650 316 C 651.100 316, 652 315.550, 652 315 C 652 314.450, 653.350 314, 655 314 C 656.650 314, 658 313.550, 658 313 C 658 312.450, 658.900 312, 660 312 C 661.100 312, 662 311.550, 662 311 C 662 310.450, 662.801 310, 663.779 310 C 664.758 310, 666.207 309.100, 667 308 C 667.793 306.900, 669.242 306, 670.221 306 C 671.199 306, 672 305.550, 672 305 C 672 304.450, 672.801 304, 673.779 304 C 674.758 304, 676.207 303.100, 677 302 C 677.793 300.900, 679.046 300, 679.786 300 C 680.525 300, 683.321 297.750, 686 295 C 688.679 292.250, 691.370 290, 691.981 290 C 693.422 290, 698 285.422, 698 283.981 C 698 283.370, 700.250 280.679, 703 278 C 705.750 275.321, 708 272.525, 708 271.786 C 708 271.046, 708.900 269.793, 710 269 C 711.100 268.207, 712 266.758, 712 265.779 C 712 264.801, 712.450 264, 713 264 C 713.550 264, 714 263.100, 714 262 C 714 260.900, 714.450 260, 715 260 C 715.550 260, 716 259.100, 716 258 C 716 256.900, 716.450 256, 717 256 C 717.550 256, 718 255.100, 718 254 C 718 252.900, 718.450 252, 719 252 C 719.550 252, 720 250.650, 720 249 C 720 247.350, 720.450 246, 721 246 C 721.550 246, 722 245.100, 722 244 C 722 242.900, 722.450 242, 723 242 C 723.550 242, 724 240.200, 724 238 C 724 235.800, 724.450 234, 725 234 C 725.550 234, 726 232.200, 726 230 C 726 227.800, 726.450 226, 727 226 C 727.600 226, 728 222, 728 216 C 728 210, 728.400 206, 729 206 C 729.556 206, 730 203.333, 730 200 C 730 196.667, 729.556 194, 729 194 C 728.400 194, 728 190, 728 184 C 728 178, 727.600 174, 727 174 C 726.450 174, 726 172.200, 726 170 C 726 167.800, 725.550 166, 725 166 C 724.450 166, 724 164.200, 724 162 C 724 159.800, 723.550 158, 723 158 C 722.450 158, 722 156.650, 722 155 C 722 153.350, 721.550 152, 721 152 C 720.450 152, 720 151.100, 720 150 C 720 148.900, 719.550 148, 719 148 C 718.450 148, 718 147.100, 718 146 C 718 144.900, 717.550 144, 717 144 C 716.450 144, 716 142.749, 716 141.221 C 716 139.589, 715.174 137.847, 714 137 C 712.900 136.207, 712 134.758, 712 133.779 C 712 132.801, 711.550 132, 711 132 C 710.450 132, 710 131.199, 710 130.221 C 710 129.242, 709.100 127.793, 708 127 C 706.900 126.207, 706 124.978, 706 124.269 C 706 122.587, 681.413 98, 679.731 98 C 679.022 98, 677.793 97.100, 677 96 C 676.207 94.900, 674.758 94, 673.779 94 C 672.801 94, 672 93.550, 672 93 C 672 92.450, 671.199 92, 670.221 92 C 669.242 92, 667.793 91.100, 667 90 C 666.207 88.900, 664.758 88, 663.779 88 C 662.801 88, 662 87.550, 662 87 C 662 86.450, 661.100 86, 660 86 C 658.900 86, 658 85.550, 658 85 C 658 84.450, 656.650 84, 655 84 C 653.350 84, 652 83.550, 652 83 C 652 82.450, 651.100 82, 650 82 C 648.900 82, 648 81.550, 648 81 C 648 80.450, 646.650 80, 645 80 C 643.350 80, 642 79.550, 642 79 C 642 78.450, 640.650 78, 639 78 C 637.350 78, 636 77.550, 636 77 C 636 76.450, 634.200 76, 632 76 C 629.800 76, 628 75.550, 628 75 C 628 74.450, 625.750 74, 623 74 C 620.250 74, 618 73.550, 618 73 C 618 72.407, 614.333 72, 609 72 C 603.667 72, 600 71.593, 600 71 C 600 70.342, 572.152 70, 518.455 70 L 436.909 70 434.455 72.455 L 432 74.909 432 223.455 C 432 305.155, 431.743 372, 431.429 372 C 430.255 372, 428 369.087, 428 367.571 C 428 366.707, 427.550 366, 427 366 C 426.450 366, 426 365.100, 426 364 C 426 362.900, 425.550 362, 425 362 C 424.450 362, 424 361.100, 424 360 C 424 358.900, 423.550 358, 423 358 C 422.450 358, 422 357.100, 422 356 C 422 354.900, 421.550 354, 421 354 C 420.450 354, 420 353.100, 420 352 C 420 350.900, 419.550 350, 419 350 C 418.450 350, 418 349.100, 418 348 C 418 346.900, 417.550 346, 417 346 C 416.450 346, 416 345.100, 416 344 C 416 342.900, 415.550 342, 415 342 C 414.450 342, 414 341.100, 414 340 C 414 338.900, 413.550 338, 413 338 C 412.450 338, 412 337.100, 412 336 C 412 334.900, 411.550 334, 411 334 C 410.450 334, 410 332.650, 410 331 C 410 329.350, 409.550 328, 409 328 C 408.450 328, 408 327.100, 408 326 C 408 324.900, 407.550 324, 407 324 C 406.450 324, 406 323.100, 406 322 C 406 320.900, 405.550 320, 405 320 C 404.450 320, 404 319.100, 404 318 C 404 316.900, 403.550 316, 403 316 C 402.450 316, 402 315.100, 402 314 C 402 312.900, 401.550 312, 401 312 C 400.450 312, 400 311.100, 400 310 C 400 308.900, 399.550 308, 399 308 C 398.450 308, 398 307.100, 398 306 C 398 304.900, 397.550 304, 397 304 C 396.450 304, 396 303.100, 396 302 C 396 300.900, 395.550 300, 395 300 C 394.450 300, 394 299.100, 394 298 C 394 296.900, 393.550 296, 393 296 C 392.450 296, 392 295.100, 392 294 C 392 292.900, 391.550 292, 391 292 C 390.450 292, 390 291.100, 390 290 C 390 288.900, 389.550 288, 389 288 C 388.450 288, 388 287.100, 388 286 C 388 284.900, 387.550 284, 387 284 C 386.450 284, 386 283.100, 386 282 C 386 280.900, 385.550 280, 385 280 C 384.450 280, 384 279.100, 384 278 C 384 276.900, 383.550 276, 383 276 C 382.450 276, 382 275.100, 382 274 C 382 272.900, 381.550 272, 381 272 C 380.450 272, 380 271.100, 380 270 C 380 268.900, 379.550 268, 379 268 C 378.450 268, 378 267.100, 378 266 C 378 264.900, 377.550 264, 377 264 C 376.450 264, 376 262.650, 376 261 C 376 259.350, 375.550 258, 375 258 C 374.450 258, 374 257.100, 374 256 C 374 254.900, 373.550 254, 373 254 C 372.450 254, 372 253.100, 372 252 C 372 250.900, 371.550 250, 371 250 C 370.450 250, 370 249.100, 370 248 C 370 246.900, 369.550 246, 369 246 C 368.450 246, 368 245.100, 368 244 C 368 242.900, 367.550 242, 367 242 C 366.450 242, 366 241.100, 366 240 C 366 238.900, 365.550 238, 365 238 C 364.450 238, 364 237.100, 364 236 C 364 234.900, 363.550 234, 363 234 C 362.450 234, 362 233.100, 362 232 C 362 230.900, 361.550 230, 361 230 C 360.450 230, 360 229.100, 360 228 C 360 226.900, 359.550 226, 359 226 C 358.450 226, 358 225.100, 358 224 C 358 222.900, 357.550 222, 357 222 C 356.450 222, 356 221.100, 356 220 C 356 218.900, 355.550 218, 355 218 C 354.450 218, 354 217.100, 354 216 C 354 214.900, 353.550 214, 353 214 C 352.450 214, 352 213.100, 352 212 C 352 210.900, 351.550 210, 351 210 C 350.450 210, 350 209.100, 350 208 C 350 206.900, 349.550 206, 349 206 C 348.450 206, 348 205.100, 348 204 C 348 202.900, 347.550 202, 347 202 C 346.450 202, 346 201.100, 346 200 C 346 198.900, 345.550 198, 345 198 C 344.450 198, 344 196.650, 344 195 C 344 193.350, 343.550 192, 343 192 C 342.450 192, 342 191.100, 342 190 C 342 188.900, 341.550 188, 341 188 C 340.450 188, 340 187.100, 340 186 C 340 184.900, 339.550 184, 339 184 C 338.450 184, 338 183.100, 338 182 C 338 180.900, 337.550 180, 337 180 C 336.450 180, 336 179.100, 336 178 C 336 176.900, 335.550 176, 335 176 C 334.450 176, 334 175.100, 334 174 C 334 172.900, 333.550 172, 333 172 C 332.450 172, 332 171.100, 332 170 C 332 168.900, 331.550 168, 331 168 C 330.450 168, 330 167.100, 330 166 C 330 164.900, 329.550 164, 329 164 C 328.450 164, 328 163.100, 328 162 C 328 160.900, 327.550 160, 327 160 C 326.450 160, 326 159.100, 326 158 C 326 156.900, 325.550 156, 325 156 C 324.450 156, 324 155.100, 324 154 C 324 152.900, 323.550 152, 323 152 C 322.450 152, 322 151.100, 322 150 C 322 148.900, 321.550 148, 321 148 C 320.450 148, 320 147.100, 320 146 C 320 144.900, 319.550 144, 319 144 C 318.450 144, 318 143.100, 318 142 C 318 140.900, 317.550 140, 317 140 C 316.450 140, 316 139.100, 316 138 C 316 136.900, 315.550 136, 315 136 C 314.450 136, 314 135.100, 314 134 C 314 132.900, 313.550 132, 313 132 C 312.450 132, 312 130.749, 312 129.221 C 312 127.589, 311.174 125.847, 310 125 C 308.826 124.153, 308 122.411, 308 120.779 C 308 119.251, 307.550 118, 307 118 C 306.450 118, 306 117.100, 306 116 C 306 114.900, 305.550 114, 305 114 C 304.450 114, 304 113.100, 304 112 C 304 110.900, 303.550 110, 303 110 C 302.450 110, 302 109.100, 302 108 C 302 106.900, 301.550 106, 301 106 C 300.450 106, 300 105.100, 300 104 C 300 102.900, 299.550 102, 299 102 C 298.450 102, 298 101.100, 298 100 C 298 98.900, 297.550 98, 297 98 C 296.450 98, 296 97.100, 296 96 C 296 94.900, 295.550 94, 295 94 C 294.450 94, 294 93.100, 294 92 C 294 90.900, 293.550 90, 293 90 C 292.450 90, 292 89.100, 292 88 C 292 86.900, 291.550 86, 291 86 C 290.450 86, 290 85.100, 290 84 C 290 82.900, 289.550 82, 289 82 C 288.450 82, 288 81.100, 288 80 C 288 78.900, 287.550 78, 287 78 C 286.450 78, 286 77.100, 286 76 C 286 74.900, 285.550 74, 285 74 C 284.450 74, 284 73.100, 284 72 C 284 70.044, 283.346 70.001, 254.250 70.038 C 229.842 70.069, 224.276 70.331, 223.250 71.496 M 510 201 L 510 266 547 266 C 571 266, 584 265.649, 584 265 C 584 264.417, 587.333 264, 592 264 C 596.667 264, 600 263.583, 600 263 C 600 262.450, 601.800 262, 604 262 C 606.200 262, 608 261.550, 608 261 C 608 260.450, 608.900 260, 610 260 C 611.100 260, 612 259.550, 612 259 C 612 258.450, 613.350 258, 615 258 C 616.650 258, 618 257.550, 618 257 C 618 256.450, 618.801 256, 619.779 256 C 620.758 256, 622.207 255.100, 623 254 C 623.793 252.900, 625.026 252, 625.739 252 C 627.559 252, 640 239.366, 640 237.519 C 640 236.683, 640.450 236, 641 236 C 641.550 236, 642 235.100, 642 234 C 642 232.900, 642.450 232, 643 232 C 643.550 232, 644 231.100, 644 230 C 644 228.900, 644.450 228, 645 228 C 645.550 228, 646 227.100, 646 226 C 646 224.900, 646.450 224, 647 224 C 647.550 224, 648 222.200, 648 220 C 648 217.800, 648.450 216, 649 216 C 649.625 216, 650 210, 650 200 C 650 190, 649.625 184, 649 184 C 648.450 184, 648 182.650, 648 181 C 648 179.350, 647.550 178, 647 178 C 646.450 178, 646 176.650, 646 175 C 646 173.350, 645.550 172, 645 172 C 644.450 172, 644 171.100, 644 170 C 644 168.900, 643.550 168, 643 168 C 642.450 168, 642 167.319, 642 166.486 C 642 164.512, 625.488 148, 623.514 148 C 622.681 148, 622 147.550, 622 147 C 622 146.450, 621.100 146, 620 146 C 618.900 146, 618 145.550, 618 145 C 618 144.450, 617.100 144, 616 144 C 614.900 144, 614 143.550, 614 143 C 614 142.450, 613.100 142, 612 142 C 610.900 142, 610 141.550, 610 141 C 610 140.450, 608.650 140, 607 140 C 605.350 140, 604 139.550, 604 139 C 604 138.444, 601.333 138, 598 138 C 594.667 138, 592 137.556, 592 137 C 592 136.350, 577.667 136, 551 136 L 510 136 510 201 M 251.250 171.496 C 250.563 172.277, 250 174.060, 250 175.458 C 250 176.856, 249.550 178, 249 178 C 248.450 178, 248 179.350, 248 181 C 248 182.650, 247.550 184, 247 184 C 246.450 184, 246 185.350, 246 187 C 246 188.650, 245.550 190, 245 190 C 244.450 190, 244 190.900, 244 192 C 244 193.100, 243.550 194, 243 194 C 242.450 194, 242 195.350, 242 197 C 242 198.650, 241.550 200, 241 200 C 240.450 200, 240 200.900, 240 202 C 240 203.100, 239.550 204, 239 204 C 238.450 204, 238 205.350, 238 207 C 238 208.650, 237.550 210, 237 210 C 236.450 210, 236 210.900, 236 212 C 236 213.100, 235.550 214, 235 214 C 234.450 214, 234 215.350, 234 217 C 234 218.650, 233.550 220, 233 220 C 232.450 220, 232 220.900, 232 222 C 232 223.100, 231.550 224, 231 224 C 230.450 224, 230 224.900, 230 226 C 230 227.100, 229.550 228, 229 228 C 228.450 228, 228 228.900, 228 230 C 228 231.100, 227.550 232, 227 232 C 226.450 232, 226 232.900, 226 234 C 226 235.100, 225.550 236, 225 236 C 224.450 236, 224 236.900, 224 238 C 224 239.100, 223.550 240, 223 240 C 222.450 240, 222 240.900, 222 242 C 222 243.100, 221.550 244, 221 244 C 220.450 244, 220 244.900, 220 246 C 220 247.100, 219.550 248, 219 248 C 218.450 248, 218 249.251, 218 250.779 C 218 252.411, 217.174 254.153, 216 255 C 214.826 255.847, 214 257.589, 214 259.221 C 214 260.749, 213.550 262, 213 262 C 212.450 262, 212 262.900, 212 264 C 212 265.100, 211.550 266, 211 266 C 210.450 266, 210 266.900, 210 268 C 210 269.100, 209.550 270, 209 270 C 208.450 270, 208 270.900, 208 272 C 208 273.100, 207.550 274, 207 274 C 206.450 274, 206 274.900, 206 276 C 206 277.100, 205.550 278, 205 278 C 204.450 278, 204 278.900, 204 280 C 204 281.100, 203.550 282, 203 282 C 202.450 282, 202 282.900, 202 284 C 202 285.100, 201.550 286, 201 286 C 200.450 286, 200 286.900, 200 288 C 200 289.100, 199.550 290, 199 290 C 198.450 290, 198 290.900, 198 292 C 198 293.976, 198.667 294, 254 294 C 290.667 294, 310 293.655, 310 293 C 310 292.450, 309.550 292, 309 292 C 308.450 292, 308 291.100, 308 290 C 308 288.900, 307.550 288, 307 288 C 306.450 288, 306 287.100, 306 286 C 306 284.900, 305.550 284, 305 284 C 304.450 284, 304 283.100, 304 282 C 304 280.900, 303.550 280, 303 280 C 302.450 280, 302 279.100, 302 278 C 302 276.900, 301.550 276, 301 276 C 300.450 276, 300 275.100, 300 274 C 300 272.900, 299.550 272, 299 272 C 298.450 272, 298 271.100, 298 270 C 298 268.900, 297.550 268, 297 268 C 296.450 268, 296 267.100, 296 266 C 296 264.900, 295.550 264, 295 264 C 294.450 264, 294 263.100, 294 262 C 294 260.900, 293.550 260, 293 260 C 292.450 260, 292 259.100, 292 258 C 292 256.900, 291.550 256, 291 256 C 290.450 256, 290 255.100, 290 254 C 290 252.900, 289.550 252, 289 252 C 288.450 252, 288 250.650, 288 249 C 288 247.350, 287.550 246, 287 246 C 286.450 246, 286 245.100, 286 244 C 286 242.900, 285.550 242, 285 242 C 284.450 242, 284 241.100, 284 240 C 284 238.900, 283.550 238, 283 238 C 282.450 238, 282 237.100, 282 236 C 282 234.900, 281.550 234, 281 234 C 280.450 234, 280 233.100, 280 232 C 280 230.900, 279.550 230, 279 230 C 278.450 230, 278 229.100, 278 228 C 278 226.900, 277.550 226, 277 226 C 276.450 226, 276 225.100, 276 224 C 276 222.900, 275.550 222, 275 222 C 274.450 222, 274 221.100, 274 220 C 274 218.900, 273.550 218, 273 218 C 272.450 218, 272 216.650, 272 215 C 272 213.350, 271.550 212, 271 212 C 270.450 212, 270 211.100, 270 210 C 270 208.900, 269.550 208, 269 208 C 268.450 208, 268 206.650, 268 205 C 268 203.350, 267.550 202, 267 202 C 266.450 202, 266 201.100, 266 200 C 266 198.900, 265.550 198, 265 198 C 264.450 198, 264 196.650, 264 195 C 264 193.350, 263.550 192, 263 192 C 262.450 192, 262 190.650, 262 189 C 262 187.350, 261.550 186, 261 186 C 260.450 186, 260 184.650, 260 183 C 260 181.350, 259.550 180, 259 180 C 258.450 180, 258 178.650, 258 177 C 258 175.350, 257.550 174, 257 174 C 256.450 174, 256 173.100, 256 172 C 256 169.654, 253.139 169.350, 251.250 171.496 M 210 471 C 210 471.619, 204.667 472, 196 472 C 187.333 472, 182 472.381, 182 473 C 182 473.571, 179 474, 175 474 C 171 474, 168 474.429, 168 475 C 168 475.550, 166.200 476, 164 476 C 161.800 476, 160 476.450, 160 477 C 160 477.550, 158.200 478, 156 478 C 153.800 478, 152 478.450, 152 479 C 152 479.550, 151.100 480, 150 480 C 148.900 480, 148 480.450, 148 481 C 148 481.550, 146.650 482, 145 482 C 143.350 482, 142 482.450, 142 483 C 142 483.550, 140.650 484, 139 484 C 137.350 484, 136 484.450, 136 485 C 136 485.550, 135.100 486, 134 486 C 132.900 486, 132 486.450, 132 487 C 132 487.550, 131.100 488, 130 488 C 128.900 488, 128 488.450, 128 489 C 128 489.550, 127.199 490, 126.221 490 C 125.242 490, 123.793 490.900, 123 492 C 122.207 493.100, 120.857 494, 120 494 C 119.143 494, 117.793 494.900, 117 496 C 116.207 497.100, 114.948 498, 114.201 498 C 113.454 498, 111.114 499.800, 109 502 C 106.886 504.200, 104.639 506, 104.007 506 C 102.528 506, 100 508.520, 100 509.993 C 100 510.618, 97.750 513.321, 95 516 C 92.250 518.679, 90 521.475, 90 522.214 C 90 522.954, 89.100 524.207, 88 525 C 86.900 525.793, 86 527.242, 86 528.221 C 86 529.199, 85.550 530, 85 530 C 84.450 530, 84 530.900, 84 532 C 84 533.100, 83.550 534, 83 534 C 82.450 534, 82 534.900, 82 536 C 82 537.100, 81.550 538, 81 538 C 80.450 538, 80 539.350, 80 541 C 80 542.650, 79.550 544, 79 544 C 78.450 544, 78 545.350, 78 547 C 78 548.650, 77.550 550, 77 550 C 76.450 550, 76 552.250, 76 555 C 76 557.750, 75.550 560, 75 560 C 74.385 560, 74 565, 74 573 C 74 581, 74.385 586, 75 586 C 75.550 586, 76 588.250, 76 591 C 76 593.750, 76.450 596, 77 596 C 77.550 596, 78 596.900, 78 598 C 78 599.100, 78.450 600, 79 600 C 79.550 600, 80 601.350, 80 603 C 80 604.650, 80.450 606, 81 606 C 81.550 606, 82 606.801, 82 607.779 C 82 608.758, 82.900 610.207, 84 611 C 85.100 611.793, 86 613.024, 86 613.735 C 86 615.422, 102.578 632, 104.265 632 C 104.976 632, 106.207 632.900, 107 634 C 107.793 635.100, 109.242 636, 110.221 636 C 111.199 636, 112 636.450, 112 637 C 112 637.550, 112.900 638, 114 638 C 115.100 638, 116 638.450, 116 639 C 116 639.550, 116.900 640, 118 640 C 119.100 640, 120 640.450, 120 641 C 120 641.550, 120.900 642, 122 642 C 123.100 642, 124 642.450, 124 643 C 124 643.550, 125.350 644, 127 644 C 128.650 644, 130 644.450, 130 645 C 130 645.550, 131.800 646, 134 646 C 136.200 646, 138 646.450, 138 647 C 138 647.550, 139.800 648, 142 648 C 144.200 648, 146 648.450, 146 649 C 146 649.556, 148.667 650, 152 650 C 155.333 650, 158 650.444, 158 651 C 158 651.600, 162 652, 168 652 C 174 652, 178 652.400, 178 653 C 178 653.611, 182.667 654, 190 654 C 197.333 654, 202 654.389, 202 655 C 202 655.611, 206.667 656, 214 656 C 221.333 656, 226 656.389, 226 657 C 226 657.611, 230.667 658, 238 658 C 245.333 658, 250 658.389, 250 659 C 250 659.556, 252.667 660, 256 660 C 259.333 660, 262 660.444, 262 661 C 262 661.550, 263.800 662, 266 662 C 268.200 662, 270 662.450, 270 663 C 270 663.550, 270.900 664, 272 664 C 273.100 664, 274 664.450, 274 665 C 274 665.550, 274.687 666, 275.526 666 C 277.511 666, 286 674.489, 286 676.474 C 286 677.313, 286.450 678, 287 678 C 287.606 678, 288 682.333, 288 689 C 288 695.667, 287.606 700, 287 700 C 286.450 700, 286 700.801, 286 701.779 C 286 702.758, 285.100 704.207, 284 705 C 282.900 705.793, 282 707.049, 282 707.792 C 282 709.452, 279.562 712, 277.973 712 C 277.329 712, 275.541 713.350, 274 715 C 272.459 716.650, 270.478 718, 269.599 718 C 268.719 718, 268 718.450, 268 719 C 268 719.550, 267.100 720, 266 720 C 264.900 720, 264 720.450, 264 721 C 264 721.550, 262.650 722, 261 722 C 259.350 722, 258 722.450, 258 723 C 258 723.550, 256.200 724, 254 724 C 251.800 724, 250 724.450, 250 725 C 250 725.550, 247.750 726, 245 726 C 242.250 726, 240 726.450, 240 727 C 240 727.636, 232 728, 218 728 C 204 728, 196 727.636, 196 727 C 196 726.450, 193.750 726, 191 726 C 188.250 726, 186 725.550, 186 725 C 186 724.450, 184.200 724, 182 724 C 179.800 724, 178 723.550, 178 723 C 178 722.450, 176.650 722, 175 722 C 173.350 722, 172 721.550, 172 721 C 172 720.450, 171.100 720, 170 720 C 168.900 720, 168 719.550, 168 719 C 168 718.450, 167.281 718, 166.401 718 C 165.522 718, 163.541 716.650, 162 715 C 160.459 713.350, 158.683 712, 158.053 712 C 156.477 712, 152 707.390, 152 705.766 C 152 705.038, 151.100 703.793, 150 703 C 148.900 702.207, 148 700.758, 148 699.779 C 148 698.801, 147.550 698, 147 698 C 146.450 698, 146 696.650, 146 695 C 146 693.350, 145.550 692, 145 692 C 144.450 692, 144 690.410, 144 688.467 C 144 685.768, 143.181 684.114, 140.533 681.467 L 137.067 678 109 678 L 80.933 678 77.467 681.467 L 74 684.933 74 694.467 C 74 700.156, 74.403 704, 75 704 C 75.550 704, 76 705.800, 76 708 C 76 710.200, 76.450 712, 77 712 C 77.550 712, 78 713.350, 78 715 C 78 716.650, 78.450 718, 79 718 C 79.550 718, 80 719.251, 80 720.779 C 80 722.411, 80.826 724.153, 82 725 C 83.100 725.793, 84 727.242, 84 728.221 C 84 729.199, 84.450 730, 85 730 C 85.550 730, 86 730.719, 86 731.599 C 86 732.478, 87.350 734.459, 89 736 C 90.650 737.541, 92 739.305, 92 739.920 C 92 741.376, 104.624 754, 106.080 754 C 106.695 754, 108.459 755.350, 110 757 C 111.541 758.650, 113.423 760, 114.180 760 C 114.938 760, 116.207 760.900, 117 762 C 117.793 763.100, 119.242 764, 120.221 764 C 121.199 764, 122 764.450, 122 765 C 122 765.550, 122.900 766, 124 766 C 125.100 766, 126 766.450, 126 767 C 126 767.550, 126.900 768, 128 768 C 129.100 768, 130 768.450, 130 769 C 130 769.550, 130.900 770, 132 770 C 133.100 770, 134 770.450, 134 771 C 134 771.550, 135.350 772, 137 772 C 138.650 772, 140 772.450, 140 773 C 140 773.550, 140.900 774, 142 774 C 143.100 774, 144 774.450, 144 775 C 144 775.550, 145.350 776, 147 776 C 148.650 776, 150 776.450, 150 777 C 150 777.550, 151.800 778, 154 778 C 156.200 778, 158 778.450, 158 779 C 158 779.550, 159.800 780, 162 780 C 164.200 780, 166 780.450, 166 781 C 166 781.550, 168.250 782, 171 782 C 173.750 782, 176 782.450, 176 783 C 176 783.571, 179 784, 183 784 C 187 784, 190 784.429, 190 785 C 190 785.643, 200 786, 218 786 C 236 786, 246 785.643, 246 785 C 246 784.429, 249 784, 253 784 C 257 784, 260 783.571, 260 783 C 260 782.450, 261.800 782, 264 782 C 266.200 782, 268 781.550, 268 781 C 268 780.450, 270.250 780, 273 780 C 275.750 780, 278 779.550, 278 779 C 278 778.450, 279.350 778, 281 778 C 282.650 778, 284 777.550, 284 777 C 284 776.450, 285.350 776, 287 776 C 288.650 776, 290 775.550, 290 775 C 290 774.450, 290.900 774, 292 774 C 293.100 774, 294 773.550, 294 773 C 294 772.450, 294.900 772, 296 772 C 297.100 772, 298 771.550, 298 771 C 298 770.450, 298.900 770, 300 770 C 301.100 770, 302 769.550, 302 769 C 302 768.450, 302.900 768, 304 768 C 305.100 768, 306 767.550, 306 767 C 306 766.450, 306.900 766, 308 766 C 309.100 766, 310 765.550, 310 765 C 310 764.450, 310.719 764, 311.599 764 C 312.478 764, 314.459 762.650, 316 761 C 317.541 759.350, 319.302 758, 319.913 758 C 321.473 758, 342 737.305, 342 735.732 C 342 735.022, 342.900 733.793, 344 733 C 345.100 732.207, 346 730.758, 346 729.779 C 346 728.801, 346.450 728, 347 728 C 347.550 728, 348 727.100, 348 726 C 348 724.900, 348.450 724, 349 724 C 349.550 724, 350 723.100, 350 722 C 350 720.900, 350.450 720, 351 720 C 351.550 720, 352 719.100, 352 718 C 352 716.900, 352.450 716, 353 716 C 353.550 716, 354 714.650, 354 713 C 354 711.350, 354.450 710, 355 710 C 355.550 710, 356 707.750, 356 705 C 356 700.667, 356.267 700, 358 700 C 359.333 700, 360 700.667, 360 702 C 360 703.100, 360.450 704, 361 704 C 361.550 704, 362 704.900, 362 706 C 362 707.100, 362.450 708, 363 708 C 363.550 708, 364 708.801, 364 709.779 C 364 710.758, 364.900 712.207, 366 713 C 367.100 713.793, 368 715.143, 368 716 C 368 716.857, 368.900 718.207, 370 719 C 371.100 719.793, 372 721.046, 372 721.786 C 372 722.525, 374.250 725.321, 377 728 C 379.750 730.679, 382 733.359, 382 733.957 C 382 735.381, 392.631 746, 394.057 746 C 394.662 746, 396.886 747.800, 399 750 C 401.114 752.200, 403.454 754, 404.201 754 C 404.948 754, 406.207 754.900, 407 756 C 407.793 757.100, 409.143 758, 410 758 C 410.857 758, 412.207 758.900, 413 760 C 413.793 761.100, 415.242 762, 416.221 762 C 417.199 762, 418 762.450, 418 763 C 418 763.550, 418.801 764, 419.779 764 C 420.758 764, 422.207 764.900, 423 766 C 423.793 767.100, 425.242 768, 426.221 768 C 427.199 768, 428 768.450, 428 769 C 428 769.550, 428.900 770, 430 770 C 431.100 770, 432 770.450, 432 771 C 432 771.550, 433.350 772, 435 772 C 436.650 772, 438 772.450, 438 773 C 438 773.550, 438.900 774, 440 774 C 441.100 774, 442 774.450, 442 775 C 442 775.550, 443.350 776, 445 776 C 446.650 776, 448 776.450, 448 777 C 448 777.550, 449.350 778, 451 778 C 452.650 778, 454 778.450, 454 779 C 454 779.550, 455.800 780, 458 780 C 460.200 780, 462 780.450, 462 781 C 462 781.550, 463.800 782, 466 782 C 468.200 782, 470 782.450, 470 783 C 470 783.571, 473 784, 477 784 C 481 784, 484 784.429, 484 785 C 484 785.639, 492.667 786, 508 786 C 523.333 786, 532 785.639, 532 785 C 532 784.417, 535.333 784, 540 784 C 544.667 784, 548 783.583, 548 783 C 548 782.450, 549.800 782, 552 782 C 554.200 782, 556 781.550, 556 781 C 556 780.450, 558.250 780, 561 780 C 563.750 780, 566 779.550, 566 779 C 566 778.450, 567.350 778, 569 778 C 570.650 778, 572 777.550, 572 777 C 572 776.450, 573.350 776, 575 776 C 576.650 776, 578 775.550, 578 775 C 578 774.450, 578.900 774, 580 774 C 581.100 774, 582 773.550, 582 773 C 582 772.450, 583.350 772, 585 772 C 586.650 772, 588 771.550, 588 771 C 588 770.450, 588.900 770, 590 770 C 591.100 770, 592 769.550, 592 769 C 592 768.450, 592.900 768, 594 768 C 595.100 768, 596 767.550, 596 767 C 596 766.450, 596.801 766, 597.779 766 C 598.758 766, 600.207 765.100, 601 764 C 601.793 762.900, 603.242 762, 604.221 762 C 605.199 762, 606 761.550, 606 761 C 606 760.450, 606.719 760, 607.599 760 C 608.478 760, 610.459 758.650, 612 757 C 613.541 755.350, 615.302 754, 615.912 754 C 617.472 754, 640 731.303, 640 729.731 C 640 729.022, 640.900 727.793, 642 727 C 643.100 726.207, 644 724.758, 644 723.779 C 644 722.801, 644.450 722, 645 722 C 645.550 722, 646 721.199, 646 720.221 C 646 719.242, 646.900 717.793, 648 717 C 649.174 716.153, 650 714.411, 650 712.779 C 650 711.251, 650.450 710, 651 710 C 651.550 710, 652 709.100, 652 708 C 652 706.900, 652.450 706, 653 706 C 653.550 706, 654 704.650, 654 703 C 654 701.350, 654.450 700, 655 700 C 655.550 700, 656 698.650, 656 697 C 656 695.350, 656.450 694, 657 694 C 657.556 694, 658 691.333, 658 688 C 658 684.667, 658.444 682, 659 682 C 659.653 682, 660 698.515, 660 729.545 L 660 777.091 662.455 779.545 L 664.909 782 694.455 782 C 713.485 782, 724 781.644, 724 781 C 724 780.450, 724.900 780, 726 780 C 727.333 780, 728 779.333, 728 778 C 728 776.900, 728.450 776, 729 776 C 729.662 776, 730 726.333, 730 629 C 730 531.667, 729.662 482, 729 482 C 728.450 482, 728 481.293, 728 480.429 C 728 476.189, 726.592 476, 695.026 476 L 664.909 476 662.455 478.455 L 660 480.909 660 531.455 C 660 564.485, 659.653 582, 659 582 C 658.444 582, 658 579.333, 658 576 C 658 572.667, 657.556 570, 657 570 C 656.450 570, 656 568.650, 656 567 C 656 565.350, 655.550 564, 655 564 C 654.450 564, 654 562.200, 654 560 C 654 557.800, 653.550 556, 653 556 C 652.450 556, 652 555.100, 652 554 C 652 552.900, 651.550 552, 651 552 C 650.450 552, 650 551.100, 650 550 C 650 548.900, 649.550 548, 649 548 C 648.450 548, 648 547.100, 648 546 C 648 544.900, 647.550 544, 647 544 C 646.450 544, 646 543.100, 646 542 C 646 540.900, 645.550 540, 645 540 C 644.450 540, 644 539.199, 644 538.221 C 644 537.242, 643.100 535.793, 642 535 C 640.900 534.207, 640 532.938, 640 532.180 C 640 531.423, 638.650 529.541, 637 528 C 635.350 526.459, 634 524.697, 634 524.085 C 634 522.632, 617.368 506, 615.915 506 C 615.303 506, 613.541 504.650, 612 503 C 610.459 501.350, 608.577 500, 607.820 500 C 607.062 500, 605.793 499.100, 605 498 C 604.207 496.900, 602.758 496, 601.779 496 C 600.801 496, 600 495.550, 600 495 C 600 494.450, 599.199 494, 598.221 494 C 597.242 494, 595.793 493.100, 595 492 C 594.207 490.900, 592.758 490, 591.779 490 C 590.801 490, 590 489.550, 590 489 C 590 488.450, 589.100 488, 588 488 C 586.900 488, 586 487.550, 586 487 C 586 486.450, 584.650 486, 583 486 C 581.350 486, 580 485.550, 580 485 C 580 484.450, 579.100 484, 578 484 C 576.900 484, 576 483.550, 576 483 C 576 482.450, 574.650 482, 573 482 C 571.350 482, 570 481.550, 570 481 C 570 480.450, 568.650 480, 567 480 C 565.350 480, 564 479.550, 564 479 C 564 478.450, 562.200 478, 560 478 C 557.800 478, 556 477.550, 556 477 C 556 476.450, 554.200 476, 552 476 C 549.800 476, 548 475.550, 548 475 C 548 474.444, 545.333 474, 542 474 C 538.667 474, 536 473.556, 536 473 C 536 472.381, 530.694 472, 522.083 472 C 511.928 472, 508.009 471.662, 507.583 470.750 C 507.117 469.750, 506.883 469.750, 506.417 470.750 C 505.998 471.647, 502.472 472, 493.917 472 C 486.639 472, 482 472.389, 482 473 C 482 473.571, 479 474, 475 474 C 471 474, 468 474.429, 468 475 C 468 475.550, 466.200 476, 464 476 C 461.800 476, 460 476.450, 460 477 C 460 477.550, 458.200 478, 456 478 C 453.800 478, 452 478.450, 452 479 C 452 479.550, 451.100 480, 450 480 C 448.900 480, 448 480.450, 448 481 C 448 481.550, 446.650 482, 445 482 C 443.350 482, 442 482.450, 442 483 C 442 483.550, 441.100 484, 440 484 C 438.900 484, 438 484.450, 438 485 C 438 485.550, 436.650 486, 435 486 C 433.350 486, 432 486.450, 432 487 C 432 487.550, 431.100 488, 430 488 C 428.900 488, 428 488.450, 428 489 C 428 489.550, 427.100 490, 426 490 C 424.900 490, 424 490.450, 424 491 C 424 491.550, 423.100 492, 422 492 C 420.900 492, 420 492.450, 420 493 C 420 493.550, 419.199 494, 418.221 494 C 417.242 494, 415.793 494.900, 415 496 C 414.207 497.100, 412.857 498, 412 498 C 411.143 498, 409.793 498.900, 409 500 C 408.207 501.100, 406.948 502, 406.201 502 C 405.454 502, 403.114 503.800, 401 506 C 398.886 508.200, 396.664 510, 396.062 510 C 394.635 510, 380 524.635, 380 526.062 C 380 526.664, 378.200 528.886, 376 531 C 373.800 533.114, 372 535.454, 372 536.201 C 372 536.948, 371.100 538.207, 370 539 C 368.900 539.793, 368 541.143, 368 542 C 368 542.857, 367.100 544.207, 366 545 C 364.900 545.793, 364 547.242, 364 548.221 C 364 549.199, 363.550 550, 363 550 C 362.450 550, 362 550.900, 362 552 C 362 553.100, 361.550 554, 361 554 C 360.450 554, 360 554.900, 360 556 C 360 557.100, 359.550 558, 359 558 C 358.450 558, 358 558.900, 358 560 C 358 561.100, 357.550 562, 357 562 C 356.450 562, 356 562.900, 356 564 C 356 565.100, 355.550 566, 355 566 C 354.450 566, 354 567.350, 354 569 C 354 570.650, 353.550 572, 353 572 C 352.450 572, 352 573.350, 352 575 C 352 576.650, 351.550 578, 351 578 C 350.450 578, 350 579.350, 350 581 C 350 582.650, 349.550 584, 349 584 C 348.450 584, 348 585.800, 348 588 C 348 590.200, 347.550 592, 347 592 C 346.450 592, 346 594.250, 346 597 C 346 599.750, 345.550 602, 345 602 C 344.373 602, 344 608.333, 344 619 C 344 633.680, 343.789 636, 342.452 636 C 341.600 636, 337.797 632.850, 334 629 C 330.203 625.150, 326.499 622, 325.769 622 C 325.039 622, 323.793 621.100, 323 620 C 322.207 618.900, 320.758 618, 319.779 618 C 318.801 618, 318 617.550, 318 617 C 318 616.450, 317.100 616, 316 616 C 314.900 616, 314 615.550, 314 615 C 314 614.450, 313.100 614, 312 614 C 310.900 614, 310 613.550, 310 613 C 310 612.450, 308.650 612, 307 612 C 305.350 612, 304 611.550, 304 611 C 304 610.450, 303.100 610, 302 610 C 300.900 610, 300 609.550, 300 609 C 300 608.450, 298.200 608, 296 608 C 293.800 608, 292 607.550, 292 607 C 292 606.450, 290.200 606, 288 606 C 285.800 606, 284 605.550, 284 605 C 284 604.450, 281.750 604, 279 604 C 276.250 604, 274 603.550, 274 603 C 274 602.417, 270.667 602, 266 602 C 261.333 602, 258 601.583, 258 601 C 258 600.385, 253 600, 245 600 C 237 600, 232 599.615, 232 599 C 232 598.394, 227.667 598, 221 598 C 214.333 598, 210 597.606, 210 597 C 210 596.381, 204.667 596, 196 596 C 187.333 596, 182 595.619, 182 595 C 182 594.429, 179 594, 175 594 C 171 594, 168 593.571, 168 593 C 168 592.450, 166.200 592, 164 592 C 161.800 592, 160 591.550, 160 591 C 160 590.450, 159.100 590, 158 590 C 156.900 590, 156 589.550, 156 589 C 156 588.450, 155.310 588, 154.467 588 C 152.476 588, 146 581.524, 146 579.533 C 146 578.690, 145.550 578, 145 578 C 144.407 578, 144 574.333, 144 569 C 144 563.667, 144.407 560, 145 560 C 145.550 560, 146 558.749, 146 557.221 C 146 555.589, 146.826 553.847, 148 553 C 149.100 552.207, 150 550.962, 150 550.234 C 150 548.517, 154.517 544, 156.234 544 C 156.962 544, 158.207 543.100, 159 542 C 159.793 540.900, 161.242 540, 162.221 540 C 163.199 540, 164 539.550, 164 539 C 164 538.450, 164.900 538, 166 538 C 167.100 538, 168 537.550, 168 537 C 168 536.450, 168.900 536, 170 536 C 171.100 536, 172 535.550, 172 535 C 172 534.450, 173.800 534, 176 534 C 178.200 534, 180 533.550, 180 533 C 180 532.450, 181.800 532, 184 532 C 186.200 532, 188 531.550, 188 531 C 188 530.364, 196 530, 210 530 C 224 530, 232 530.364, 232 531 C 232 531.550, 234.250 532, 237 532 C 239.750 532, 242 532.450, 242 533 C 242 533.550, 243.350 534, 245 534 C 246.650 534, 248 534.450, 248 535 C 248 535.550, 248.900 536, 250 536 C 251.100 536, 252 536.450, 252 537 C 252 537.550, 252.900 538, 254 538 C 255.100 538, 256 538.450, 256 539 C 256 539.550, 256.685 540, 257.522 540 C 259.502 540, 270 550.498, 270 552.478 C 270 553.315, 270.450 554, 271 554 C 271.550 554, 272 554.900, 272 556 C 272 557.100, 272.450 558, 273 558 C 273.550 558, 274 559.350, 274 561 C 274 562.650, 274.450 564, 275 564 C 275.550 564, 276 565.157, 276 566.571 C 276 571.943, 276.348 572, 308.974 572 L 339.091 572 341.545 569.545 C 343.809 567.282, 344 566.347, 344 557.545 C 344 551.848, 343.597 548, 343 548 C 342.450 548, 342 546.200, 342 544 C 342 541.800, 341.550 540, 341 540 C 340.450 540, 340 538.650, 340 537 C 340 535.350, 339.550 534, 339 534 C 338.450 534, 338 533.100, 338 532 C 338 530.900, 337.550 530, 337 530 C 336.450 530, 336 529.100, 336 528 C 336 526.900, 335.550 526, 335 526 C 334.450 526, 334 525.100, 334 524 C 334 522.900, 333.550 522, 333 522 C 332.450 522, 332 521.281, 332 520.401 C 332 519.522, 330.650 517.541, 329 516 C 327.350 514.459, 326 512.691, 326 512.072 C 326 510.619, 317.398 502, 315.948 502 C 315.340 502, 313.114 500.200, 311 498 C 308.886 495.800, 306.447 494, 305.578 494 C 304.710 494, 304 493.550, 304 493 C 304 492.450, 303.100 492, 302 492 C 300.900 492, 300 491.550, 300 491 C 300 490.450, 299.199 490, 298.221 490 C 297.242 490, 295.793 489.100, 295 488 C 294.153 486.826, 292.411 486, 290.779 486 C 289.251 486, 288 485.550, 288 485 C 288 484.450, 287.100 484, 286 484 C 284.900 484, 284 483.550, 284 483 C 284 482.450, 282.650 482, 281 482 C 279.350 482, 278 481.550, 278 481 C 278 480.450, 276.650 480, 275 480 C 273.350 480, 272 479.550, 272 479 C 272 478.450, 270.200 478, 268 478 C 265.800 478, 264 477.550, 264 477 C 264 476.450, 262.200 476, 260 476 C 257.800 476, 256 475.550, 256 475 C 256 474.429, 253 474, 249 474 C 245 474, 242 473.571, 242 473 C 242 472.378, 236.333 472, 227 472 C 217.667 472, 212 471.622, 212 471 C 212 470.450, 211.550 470, 211 470 C 210.450 470, 210 470.450, 210 471 M 488 531 C 488 531.550, 486.200 532, 484 532 C 481.800 532, 480 532.450, 480 533 C 480 533.550, 478.650 534, 477 534 C 475.350 534, 474 534.450, 474 535 C 474 535.550, 473.100 536, 472 536 C 470.900 536, 470 536.450, 470 537 C 470 537.550, 468.749 538, 467.221 538 C 465.589 538, 463.847 538.826, 463 540 C 462.207 541.100, 460.758 542, 459.779 542 C 458.801 542, 458 542.450, 458 543 C 458 543.550, 457.281 544, 456.401 544 C 455.522 544, 453.541 545.350, 452 547 C 450.459 548.650, 448.695 550, 448.080 550 C 446.624 550, 434 562.624, 434 564.080 C 434 564.695, 432.650 566.459, 431 568 C 429.350 569.541, 428 571.522, 428 572.401 C 428 573.281, 427.550 574, 427 574 C 426.450 574, 426 574.900, 426 576 C 426 577.100, 425.550 578, 425 578 C 424.450 578, 424 578.900, 424 580 C 424 581.100, 423.550 582, 423 582 C 422.450 582, 422 582.900, 422 584 C 422 585.100, 421.550 586, 421 586 C 420.450 586, 420 586.900, 420 588 C 420 589.100, 419.550 590, 419 590 C 418.450 590, 418 591.350, 418 593 C 418 594.650, 417.550 596, 417 596 C 416.450 596, 416 597.800, 416 600 C 416 602.200, 415.550 604, 415 604 C 414.429 604, 414 607, 414 611 C 414 615, 413.571 618, 413 618 C 412.394 618, 412 622.333, 412 629 C 412 635.667, 412.394 640, 413 640 C 413.571 640, 414 643, 414 647 C 414 651, 414.429 654, 415 654 C 415.550 654, 416 655.800, 416 658 C 416 660.200, 416.450 662, 417 662 C 417.550 662, 418 663.350, 418 665 C 418 666.650, 418.450 668, 419 668 C 419.550 668, 420 668.900, 420 670 C 420 671.100, 420.450 672, 421 672 C 421.550 672, 422 673.251, 422 674.779 C 422 676.411, 422.826 678.153, 424 679 C 425.100 679.793, 426 681.242, 426 682.221 C 426 683.199, 426.450 684, 427 684 C 427.550 684, 428 684.801, 428 685.779 C 428 686.758, 428.900 688.207, 430 689 C 431.100 689.793, 432 691.024, 432 691.735 C 432 693.422, 448.578 710, 450.265 710 C 450.976 710, 452.207 710.900, 453 712 C 453.793 713.100, 455.143 714, 456 714 C 456.857 714, 458.207 714.900, 459 716 C 459.793 717.100, 461.242 718, 462.221 718 C 463.199 718, 464 718.450, 464 719 C 464 719.550, 465.350 720, 467 720 C 468.650 720, 470 720.450, 470 721 C 470 721.550, 470.900 722, 472 722 C 473.100 722, 474 722.450, 474 723 C 474 723.550, 475.800 724, 478 724 C 480.200 724, 482 724.450, 482 725 C 482 725.550, 483.800 726, 486 726 C 488.200 726, 490 726.450, 490 727 C 490 727.630, 496.667 728, 508 728 C 519.333 728, 526 727.630, 526 727 C 526 726.450, 528.250 726, 531 726 C 533.750 726, 536 725.550, 536 725 C 536 724.450, 537.350 724, 539 724 C 540.650 724, 542 723.550, 542 723 C 542 722.450, 543.350 722, 545 722 C 546.650 722, 548 721.550, 548 721 C 548 720.450, 548.900 720, 550 720 C 551.100 720, 552 719.550, 552 719 C 552 718.450, 553.251 718, 554.779 718 C 556.411 718, 558.153 717.174, 559 716 C 559.793 714.900, 561.062 714, 561.820 714 C 562.577 714, 564.459 712.650, 566 711 C 567.541 709.350, 569.329 708, 569.973 708 C 571.474 708, 574 705.487, 574 703.993 C 574 703.361, 575.800 701.114, 578 699 C 580.200 696.886, 582 694.447, 582 693.578 C 582 692.710, 582.450 692, 583 692 C 583.550 692, 584 691.100, 584 690 C 584 688.900, 584.450 688, 585 688 C 585.550 688, 586 687.100, 586 686 C 586 684.900, 586.450 684, 587 684 C 587.550 684, 588 682.200, 588 680 C 588 677.800, 588.450 676, 589 676 C 589.550 676, 590 674.200, 590 672 C 590 669.800, 590.450 668, 591 668 C 591.550 668, 592 667.100, 592 666 C 592 664.667, 592.667 664, 594 664 C 595.100 664, 596 663.550, 596 663 C 596 662.357, 606.200 662, 624.599 662 L 653.198 662 656 665 C 657.541 666.650, 659.072 668, 659.401 668 C 659.731 668, 660 651.800, 660 632 C 660 608.667, 659.648 596, 659 596 C 658.450 596, 658 596.450, 658 597 C 658 597.550, 657.100 598, 656 598 C 654.900 598, 654 598.450, 654 599 C 654 599.644, 643.667 600, 625 600 C 606.333 600, 596 599.644, 596 599 C 596 598.450, 595.100 598, 594 598 C 592.667 598, 592 597.333, 592 596 C 592 594.900, 591.550 594, 591 594 C 590.450 594, 590 592.200, 590 590 C 590 587.800, 589.550 586, 589 586 C 588.450 586, 588 584.200, 588 582 C 588 579.800, 587.550 578, 587 578 C 586.450 578, 586 577.100, 586 576 C 586 574.900, 585.550 574, 585 574 C 584.450 574, 584 573.100, 584 572 C 584 570.900, 583.550 570, 583 570 C 582.450 570, 582 569.100, 582 568 C 582 566.900, 581.550 566, 581 566 C 580.450 566, 580 565.319, 580 564.487 C 580 562.514, 561.486 544, 559.513 544 C 558.681 544, 558 543.550, 558 543 C 558 542.450, 557.199 542, 556.221 542 C 555.242 542, 553.793 541.100, 553 540 C 552.153 538.826, 550.411 538, 548.779 538 C 547.251 538, 546 537.550, 546 537 C 546 536.450, 545.100 536, 544 536 C 542.900 536, 542 535.550, 542 535 C 542 534.450, 540.650 534, 539 534 C 537.350 534, 536 533.550, 536 533 C 536 532.450, 534.200 532, 532 532 C 529.800 532, 528 531.550, 528 531 C 528 530.367, 520.667 530, 508 530 C 495.333 530, 488 530.367, 488 531" stroke="none" fill="#1d54ec" fill-rule="evenodd"/><path d="M 32 429 L 32 820 398 820 L 764 820 764 429 L 764 38 398 38 L 32 38 32 429 M 46 429 L 46 806 398 806 L 750 806 750 429 L 750 52 398 52 L 46 52 46 429 M 223.250 71.496 C 222.563 72.277, 222 73.610, 222 74.458 C 222 75.306, 221.550 76, 221 76 C 220.450 76, 220 76.900, 220 78 C 220 79.100, 219.550 80, 219 80 C 218.450 80, 218 80.900, 218 82 C 218 83.100, 217.550 84, 217 84 C 216.450 84, 216 84.900, 216 86 C 216 87.100, 215.550 88, 215 88 C 214.450 88, 214 88.900, 214 90 C 214 91.100, 213.550 92, 213 92 C 212.450 92, 212 92.900, 212 94 C 212 95.100, 211.550 96, 211 96 C 210.450 96, 210 96.900, 210 98 C 210 99.100, 209.550 100, 209 100 C 208.450 100, 208 100.900, 208 102 C 208 103.100, 207.550 104, 207 104 C 206.450 104, 206 104.900, 206 106 C 206 107.100, 205.550 108, 205 108 C 204.450 108, 204 108.900, 204 110 C 204 111.100, 203.550 112, 203 112 C 202.450 112, 202 112.900, 202 114 C 202 115.100, 201.550 116, 201 116 C 200.450 116, 200 116.900, 200 118 C 200 119.100, 199.550 120, 199 120 C 198.450 120, 198 121.251, 198 122.779 C 198 124.411, 197.174 126.153, 196 127 C 194.826 127.847, 194 129.589, 194 131.221 C 194 132.749, 193.550 134, 193 134 C 192.450 134, 192 134.900, 192 136 C 192 137.100, 191.550 138, 191 138 C 190.450 138, 190 138.900, 190 140 C 190 141.100, 189.550 142, 189 142 C 188.450 142, 188 142.900, 188 144 C 188 145.100, 187.550 146, 187 146 C 186.450 146, 186 146.900, 186 148 C 186 149.100, 185.550 150, 185 150 C 184.450 150, 184 150.900, 184 152 C 184 153.100, 183.550 154, 183 154 C 182.450 154, 182 154.900, 182 156 C 182 157.100, 181.550 158, 181 158 C 180.450 158, 180 158.900, 180 160 C 180 161.100, 179.550 162, 179 162 C 178.450 162, 178 162.900, 178 164 C 178 165.100, 177.550 166, 177 166 C 176.450 166, 176 166.900, 176 168 C 176 169.100, 175.550 170, 175 170 C 174.450 170, 174 170.900, 174 172 C 174 173.100, 173.550 174, 173 174 C 172.450 174, 172 174.900, 172 176 C 172 177.100, 171.550 178, 171 178 C 170.450 178, 170 178.900, 170 180 C 170 181.100, 169.550 182, 169 182 C 168.450 182, 168 182.900, 168 184 C 168 185.100, 167.550 186, 167 186 C 166.450 186, 166 186.900, 166 188 C 166 189.100, 165.550 190, 165 190 C 164.450 190, 164 191.350, 164 193 C 164 194.650, 163.550 196, 163 196 C 162.450 196, 162 196.900, 162 198 C 162 199.100, 161.550 200, 161 200 C 160.450 200, 160 200.900, 160 202 C 160 203.100, 159.550 204, 159 204 C 158.450 204, 158 204.900, 158 206 C 158 207.100, 157.550 208, 157 208 C 156.450 208, 156 208.900, 156 210 C 156 211.100, 155.550 212, 155 212 C 154.450 212, 154 212.900, 154 214 C 154 215.100, 153.550 216, 153 216 C 152.450 216, 152 216.900, 152 218 C 152 219.100, 151.550 220, 151 220 C 150.450 220, 150 220.900, 150 222 C 150 223.100, 149.550 224, 149 224 C 148.450 224, 148 224.900, 148 226 C 148 227.100, 147.550 228, 147 228 C 146.450 228, 146 228.900, 146 230 C 146 231.100, 145.550 232, 145 232 C 144.450 232, 144 232.900, 144 234 C 144 235.100, 143.550 236, 143 236 C 142.450 236, 142 236.900, 142 238 C 142 239.100, 141.550 240, 141 240 C 140.450 240, 140 240.900, 140 242 C 140 243.100, 139.550 244, 139 244 C 138.450 244, 138 244.900, 138 246 C 138 247.100, 137.550 248, 137 248 C 136.450 248, 136 248.900, 136 250 C 136 251.100, 135.550 252, 135 252 C 134.450 252, 134 252.900, 134 254 C 134 255.100, 133.550 256, 133 256 C 132.450 256, 132 257.251, 132 258.779 C 132 260.411, 131.174 262.153, 130 263 C 128.826 263.847, 128 265.589, 128 267.221 C 128 268.749, 127.550 270, 127 270 C 126.450 270, 126 270.900, 126 272 C 126 273.100, 125.550 274, 125 274 C 124.450 274, 124 274.900, 124 276 C 124 277.100, 123.550 278, 123 278 C 122.450 278, 122 278.900, 122 280 C 122 281.100, 121.550 282, 121 282 C 120.450 282, 120 282.900, 120 284 C 120 285.100, 119.550 286, 119 286 C 118.450 286, 118 286.900, 118 288 C 118 289.100, 117.550 290, 117 290 C 116.450 290, 116 290.900, 116 292 C 116 293.100, 115.550 294, 115 294 C 114.450 294, 114 294.900, 114 296 C 114 297.100, 113.550 298, 113 298 C 112.450 298, 112 298.900, 112 300 C 112 301.100, 111.550 302, 111 302 C 110.450 302, 110 302.900, 110 304 C 110 305.100, 109.550 306, 109 306 C 108.450 306, 108 306.900, 108 308 C 108 309.100, 107.550 310, 107 310 C 106.450 310, 106 310.900, 106 312 C 106 313.100, 105.550 314, 105 314 C 104.450 314, 104 314.900, 104 316 C 104 317.100, 103.550 318, 103 318 C 102.450 318, 102 318.900, 102 320 C 102 321.100, 101.550 322, 101 322 C 100.450 322, 100 323.251, 100 324.779 C 100 326.411, 99.174 328.153, 98 329 C 96.826 329.847, 96 331.589, 96 333.221 C 96 334.749, 95.550 336, 95 336 C 94.450 336, 94 336.900, 94 338 C 94 339.100, 93.550 340, 93 340 C 92.450 340, 92 340.900, 92 342 C 92 343.100, 91.550 344, 91 344 C 90.450 344, 90 344.900, 90 346 C 90 347.100, 89.550 348, 89 348 C 88.450 348, 88 348.900, 88 350 C 88 351.100, 87.550 352, 87 352 C 86.450 352, 86 352.900, 86 354 C 86 355.100, 85.550 356, 85 356 C 84.450 356, 84 356.900, 84 358 C 84 359.100, 83.550 360, 83 360 C 82.450 360, 82 360.900, 82 362 C 82 363.100, 81.550 364, 81 364 C 80.450 364, 80 364.900, 80 366 C 80 367.100, 79.550 368, 79 368 C 78.450 368, 78 368.900, 78 370 C 78 371.100, 77.550 372, 77 372 C 76.450 372, 76 372.900, 76 374 C 76 375.100, 75.550 376, 75 376 C 74.450 376, 74 376.900, 74 378 C 74 379.100, 73.550 380, 73 380 C 72.450 380, 72 380.900, 72 382 C 72 383.100, 71.550 384, 71 384 C 70.450 384, 70 384.900, 70 386 C 70 387.100, 69.550 388, 69 388 C 68.450 388, 68 388.900, 68 390 C 68 391.100, 67.550 392, 67 392 C 66.450 392, 66 392.900, 66 394 C 66 395.100, 65.550 396, 65 396 C 64.450 396, 64 397.251, 64 398.779 C 64 400.411, 63.174 402.153, 62 403 C 60.826 403.847, 60 405.589, 60 407.221 C 60 408.749, 59.550 410, 59 410 C 57.515 410, 57.790 412.933, 59.429 414.571 C 60.618 415.761, 67.410 416, 100 416 C 141.177 416, 142 415.913, 142 411.571 C 142 410.707, 142.450 410, 143 410 C 143.550 410, 144 409.100, 144 408 C 144 406.900, 144.450 406, 145 406 C 145.550 406, 146 405.100, 146 404 C 146 402.900, 146.450 402, 147 402 C 147.550 402, 148 401.100, 148 400 C 148 398.900, 148.450 398, 149 398 C 149.550 398, 150 397.100, 150 396 C 150 394.900, 150.450 394, 151 394 C 151.550 394, 152 393.100, 152 392 C 152 390.900, 152.450 390, 153 390 C 153.550 390, 154 389.100, 154 388 C 154 386.900, 154.450 386, 155 386 C 155.550 386, 156 385.100, 156 384 C 156 382.900, 156.450 382, 157 382 C 157.550 382, 158 381.100, 158 380 C 158 378.900, 158.450 378, 159 378 C 159.550 378, 160 376.650, 160 375 C 160 373.350, 160.450 372, 161 372 C 161.550 372, 162 371.100, 162 370 C 162 368.900, 162.450 368, 163 368 C 163.550 368, 164 367.100, 164 366 C 164 364.900, 164.450 364, 165 364 C 165.550 364, 166 363.100, 166 362 C 166 360.900, 166.450 360, 167 360 C 167.550 360, 168 359.100, 168 358 C 168 356.016, 168.667 356, 253 356 C 337.333 356, 338 356.016, 338 358 C 338 359.100, 338.450 360, 339 360 C 339.550 360, 340 360.900, 340 362 C 340 363.100, 340.450 364, 341 364 C 341.550 364, 342 364.900, 342 366 C 342 367.100, 342.450 368, 343 368 C 343.550 368, 344 368.900, 344 370 C 344 371.100, 344.450 372, 345 372 C 345.550 372, 346 372.900, 346 374 C 346 375.100, 346.450 376, 347 376 C 347.550 376, 348 376.900, 348 378 C 348 379.100, 348.450 380, 349 380 C 349.550 380, 350 380.900, 350 382 C 350 383.100, 350.450 384, 351 384 C 351.550 384, 352 384.900, 352 386 C 352 387.100, 352.450 388, 353 388 C 353.550 388, 354 388.900, 354 390 C 354 391.100, 354.450 392, 355 392 C 355.550 392, 356 392.900, 356 394 C 356 395.100, 356.450 396, 357 396 C 357.550 396, 358 396.900, 358 398 C 358 399.100, 358.450 400, 359 400 C 359.550 400, 360 400.900, 360 402 C 360 403.100, 360.450 404, 361 404 C 361.550 404, 362 404.900, 362 406 C 362 407.100, 362.450 408, 363 408 C 363.550 408, 364 408.695, 364 409.545 C 364 410.395, 365.105 412.195, 366.455 413.545 L 368.909 416 437 416 L 505.091 416 507.545 413.545 L 510 411.091 510 369.545 L 510 328 554 328 C 582.667 328, 598 327.652, 598 327 C 598 326.407, 601.667 326, 607 326 C 612.333 326, 616 325.593, 616 325 C 616 324.450, 618.250 324, 621 324 C 623.750 324, 626 323.550, 626 323 C 626 322.450, 628.250 322, 631 322 C 633.750 322, 636 321.550, 636 321 C 636 320.450, 637.350 320, 639 320 C 640.650 320, 642 319.550, 642 319 C 642 318.450, 643.350 318, 645 318 C 646.650 318, 648 317.550, 648 317 C 648 316.450, 648.900 316, 650 316 C 651.100 316, 652 315.550, 652 315 C 652 314.450, 653.350 314, 655 314 C 656.650 314, 658 313.550, 658 313 C 658 312.450, 658.900 312, 660 312 C 661.100 312, 662 311.550, 662 311 C 662 310.450, 662.801 310, 663.779 310 C 664.758 310, 666.207 309.100, 667 308 C 667.793 306.900, 669.242 306, 670.221 306 C 671.199 306, 672 305.550, 672 305 C 672 304.450, 672.801 304, 673.779 304 C 674.758 304, 676.207 303.100, 677 302 C 677.793 300.900, 679.046 300, 679.786 300 C 680.525 300, 683.321 297.750, 686 295 C 688.679 292.250, 691.370 290, 691.981 290 C 693.422 290, 698 285.422, 698 283.981 C 698 283.370, 700.250 280.679, 703 278 C 705.750 275.321, 708 272.525, 708 271.786 C 708 271.046, 708.900 269.793, 710 269 C 711.100 268.207, 712 266.758, 712 265.779 C 712 264.801, 712.450 264, 713 264 C 713.550 264, 714 263.100, 714 262 C 714 260.900, 714.450 260, 715 260 C 715.550 260, 716 259.100, 716 258 C 716 256.900, 716.450 256, 717 256 C 717.550 256, 718 255.100, 718 254 C 718 252.900, 718.450 252, 719 252 C 719.550 252, 720 250.650, 720 249 C 720 247.350, 720.450 246, 721 246 C 721.550 246, 722 245.100, 722 244 C 722 242.900, 722.450 242, 723 242 C 723.550 242, 724 240.200, 724 238 C 724 235.800, 724.450 234, 725 234 C 725.550 234, 726 232.200, 726 230 C 726 227.800, 726.450 226, 727 226 C 727.600 226, 728 222, 728 216 C 728 210, 728.400 206, 729 206 C 729.556 206, 730 203.333, 730 200 C 730 196.667, 729.556 194, 729 194 C 728.400 194, 728 190, 728 184 C 728 178, 727.600 174, 727 174 C 726.450 174, 726 172.200, 726 170 C 726 167.800, 725.550 166, 725 166 C 724.450 166, 724 164.200, 724 162 C 724 159.800, 723.550 158, 723 158 C 722.450 158, 722 156.650, 722 155 C 722 153.350, 721.550 152, 721 152 C 720.450 152, 720 151.100, 720 150 C 720 148.900, 719.550 148, 719 148 C 718.450 148, 718 147.100, 718 146 C 718 144.900, 717.550 144, 717 144 C 716.450 144, 716 142.749, 716 141.221 C 716 139.589, 715.174 137.847, 714 137 C 712.900 136.207, 712 134.758, 712 133.779 C 712 132.801, 711.550 132, 711 132 C 710.450 132, 710 131.199, 710 130.221 C 710 129.242, 709.100 127.793, 708 127 C 706.900 126.207, 706 124.978, 706 124.269 C 706 122.587, 681.413 98, 679.731 98 C 679.022 98, 677.793 97.100, 677 96 C 676.207 94.900, 674.758 94, 673.779 94 C 672.801 94, 672 93.550, 672 93 C 672 92.450, 671.199 92, 670.221 92 C 669.242 92, 667.793 91.100, 667 90 C 666.207 88.900, 664.758 88, 663.779 88 C 662.801 88, 662 87.550, 662 87 C 662 86.450, 661.100 86, 660 86 C 658.900 86, 658 85.550, 658 85 C 658 84.450, 656.650 84, 655 84 C 653.350 84, 652 83.550, 652 83 C 652 82.450, 651.100 82, 650 82 C 648.900 82, 648 81.550, 648 81 C 648 80.450, 646.650 80, 645 80 C 643.350 80, 642 79.550, 642 79 C 642 78.450, 640.650 78, 639 78 C 637.350 78, 636 77.550, 636 77 C 636 76.450, 634.200 76, 632 76 C 629.800 76, 628 75.550, 628 75 C 628 74.450, 625.750 74, 623 74 C 620.250 74, 618 73.550, 618 73 C 618 72.407, 614.333 72, 609 72 C 603.667 72, 600 71.593, 600 71 C 600 70.342, 572.152 70, 518.455 70 L 436.909 70 434.455 72.455 L 432 74.909 432 223.455 C 432 305.155, 431.743 372, 431.429 372 C 430.255 372, 428 369.087, 428 367.571 C 428 366.707, 427.550 366, 427 366 C 426.450 366, 426 365.100, 426 364 C 426 362.900, 425.550 362, 425 362 C 424.450 362, 424 361.100, 424 360 C 424 358.900, 423.550 358, 423 358 C 422.450 358, 422 357.100, 422 356 C 422 354.900, 421.550 354, 421 354 C 420.450 354, 420 353.100, 420 352 C 420 350.900, 419.550 350, 419 350 C 418.450 350, 418 349.100, 418 348 C 418 346.900, 417.550 346, 417 346 C 416.450 346, 416 345.100, 416 344 C 416 342.900, 415.550 342, 415 342 C 414.450 342, 414 341.100, 414 340 C 414 338.900, 413.550 338, 413 338 C 412.450 338, 412 337.100, 412 336 C 412 334.900, 411.550 334, 411 334 C 410.450 334, 410 332.650, 410 331 C 410 329.350, 409.550 328, 409 328 C 408.450 328, 408 327.100, 408 326 C 408 324.900, 407.550 324, 407 324 C 406.450 324, 406 323.100, 406 322 C 406 320.900, 405.550 320, 405 320 C 404.450 320, 404 319.100, 404 318 C 404 316.900, 403.550 316, 403 316 C 402.450 316, 402 315.100, 402 314 C 402 312.900, 401.550 312, 401 312 C 400.450 312, 400 311.100, 400 310 C 400 308.900, 399.550 308, 399 308 C 398.450 308, 398 307.100, 398 306 C 398 304.900, 397.550 304, 397 304 C 396.450 304, 396 303.100, 396 302 C 396 300.900, 395.550 300, 395 300 C 394.450 300, 394 299.100, 394 298 C 394 296.900, 393.550 296, 393 296 C 392.450 296, 392 295.100, 392 294 C 392 292.900, 391.550 292, 391 292 C 390.450 292, 390 291.100, 390 290 C 390 288.900, 389.550 288, 389 288 C 388.450 288, 388 287.100, 388 286 C 388 284.900, 387.550 284, 387 284 C 386.450 284, 386 283.100, 386 282 C 386 280.900, 385.550 280, 385 280 C 384.450 280, 384 279.100, 384 278 C 384 276.900, 383.550 276, 383 276 C 382.450 276, 382 275.100, 382 274 C 382 272.900, 381.550 272, 381 272 C 380.450 272, 380 271.100, 380 270 C 380 268.900, 379.550 268, 379 268 C 378.450 268, 378 267.100, 378 266 C 378 264.900, 377.550 264, 377 264 C 376.450 264, 376 262.650, 376 261 C 376 259.350, 375.550 258, 375 258 C 374.450 258, 374 257.100, 374 256 C 374 254.900, 373.550 254, 373 254 C 372.450 254, 372 253.100, 372 252 C 372 250.900, 371.550 250, 371 250 C 370.450 250, 370 249.100, 370 248 C 370 246.900, 369.550 246, 369 246 C 368.450 246, 368 245.100, 368 244 C 368 242.900, 367.550 242, 367 242 C 366.450 242, 366 241.100, 366 240 C 366 238.900, 365.550 238, 365 238 C 364.450 238, 364 237.100, 364 236 C 364 234.900, 363.550 234, 363 234 C 362.450 234, 362 233.100, 362 232 C 362 230.900, 361.550 230, 361 230 C 360.450 230, 360 229.100, 360 228 C 360 226.900, 359.550 226, 359 226 C 358.450 226, 358 225.100, 358 224 C 358 222.900, 357.550 222, 357 222 C 356.450 222, 356 221.100, 356 220 C 356 218.900, 355.550 218, 355 218 C 354.450 218, 354 217.100, 354 216 C 354 214.900, 353.550 214, 353 214 C 352.450 214, 352 213.100, 352 212 C 352 210.900, 351.550 210, 351 210 C 350.450 210, 350 209.100, 350 208 C 350 206.900, 349.550 206, 349 206 C 348.450 206, 348 205.100, 348 204 C 348 202.900, 347.550 202, 347 202 C 346.450 202, 346 201.100, 346 200 C 346 198.900, 345.550 198, 345 198 C 344.450 198, 344 196.650, 344 195 C 344 193.350, 343.550 192, 343 192 C 342.450 192, 342 191.100, 342 190 C 342 188.900, 341.550 188, 341 188 C 340.450 188, 340 187.100, 340 186 C 340 184.900, 339.550 184, 339 184 C 338.450 184, 338 183.100, 338 182 C 338 180.900, 337.550 180, 337 180 C 336.450 180, 336 179.100, 336 178 C 336 176.900, 335.550 176, 335 176 C 334.450 176, 334 175.100, 334 174 C 334 172.900, 333.550 172, 333 172 C 332.450 172, 332 171.100, 332 170 C 332 168.900, 331.550 168, 331 168 C 330.450 168, 330 167.100, 330 166 C 330 164.900, 329.550 164, 329 164 C 328.450 164, 328 163.100, 328 162 C 328 160.900, 327.550 160, 327 160 C 326.450 160, 326 159.100, 326 158 C 326 156.900, 325.550 156, 325 156 C 324.450 156, 324 155.100, 324 154 C 324 152.900, 323.550 152, 323 152 C 322.450 152, 322 151.100, 322 150 C 322 148.900, 321.550 148, 321 148 C 320.450 148, 320 147.100, 320 146 C 320 144.900, 319.550 144, 319 144 C 318.450 144, 318 143.100, 318 142 C 318 140.900, 317.550 140, 317 140 C 316.450 140, 316 139.100, 316 138 C 316 136.900, 315.550 136, 315 136 C 314.450 136, 314 135.100, 314 134 C 314 132.900, 313.550 132, 313 132 C 312.450 132, 312 130.749, 312 129.221 C 312 127.589, 311.174 125.847, 310 125 C 308.826 124.153, 308 122.411, 308 120.779 C 308 119.251, 307.550 118, 307 118 C 306.450 118, 306 117.100, 306 116 C 306 114.900, 305.550 114, 305 114 C 304.450 114, 304 113.100, 304 112 C 304 110.900, 303.550 110, 303 110 C 302.450 110, 302 109.100, 302 108 C 302 106.900, 301.550 106, 301 106 C 300.450 106, 300 105.100, 300 104 C 300 102.900, 299.550 102, 299 102 C 298.450 102, 298 101.100, 298 100 C 298 98.900, 297.550 98, 297 98 C 296.450 98, 296 97.100, 296 96 C 296 94.900, 295.550 94, 295 94 C 294.450 94, 294 93.100, 294 92 C 294 90.900, 293.550 90, 293 90 C 292.450 90, 292 89.100, 292 88 C 292 86.900, 291.550 86, 291 86 C 290.450 86, 290 85.100, 290 84 C 290 82.900, 289.550 82, 289 82 C 288.450 82, 288 81.100, 288 80 C 288 78.900, 287.550 78, 287 78 C 286.450 78, 286 77.100, 286 76 C 286 74.900, 285.550 74, 285 74 C 284.450 74, 284 73.100, 284 72 C 284 70.044, 283.346 70.001, 254.250 70.038 C 229.842 70.069, 224.276 70.331, 223.250 71.496 M 510 201 L 510 266 547 266 C 571 266, 584 265.649, 584 265 C 584 264.417, 587.333 264, 592 264 C 596.667 264, 600 263.583, 600 263 C 600 262.450, 601.800 262, 604 262 C 606.200 262, 608 261.550, 608 261 C 608 260.450, 608.900 260, 610 260 C 611.100 260, 612 259.550, 612 259 C 612 258.450, 613.350 258, 615 258 C 616.650 258, 618 257.550, 618 257 C 618 256.450, 618.801 256, 619.779 256 C 620.758 256, 622.207 255.100, 623 254 C 623.793 252.900, 625.026 252, 625.739 252 C 627.559 252, 640 239.366, 640 237.519 C 640 236.683, 640.450 236, 641 236 C 641.550 236, 642 235.100, 642 234 C 642 232.900, 642.450 232, 643 232 C 643.550 232, 644 231.100, 644 230 C 644 228.900, 644.450 228, 645 228 C 645.550 228, 646 227.100, 646 226 C 646 224.900, 646.450 224, 647 224 C 647.550 224, 648 222.200, 648 220 C 648 217.800, 648.450 216, 649 216 C 649.625 216, 650 210, 650 200 C 650 190, 649.625 184, 649 184 C 648.450 184, 648 182.650, 648 181 C 648 179.350, 647.550 178, 647 178 C 646.450 178, 646 176.650, 646 175 C 646 173.350, 645.550 172, 645 172 C 644.450 172, 644 171.100, 644 170 C 644 168.900, 643.550 168, 643 168 C 642.450 168, 642 167.319, 642 166.486 C 642 164.512, 625.488 148, 623.514 148 C 622.681 148, 622 147.550, 622 147 C 622 146.450, 621.100 146, 620 146 C 618.900 146, 618 145.550, 618 145 C 618 144.450, 617.100 144, 616 144 C 614.900 144, 614 143.550, 614 143 C 614 142.450, 613.100 142, 612 142 C 610.900 142, 610 141.550, 610 141 C 610 140.450, 608.650 140, 607 140 C 605.350 140, 604 139.550, 604 139 C 604 138.444, 601.333 138, 598 138 C 594.667 138, 592 137.556, 592 137 C 592 136.350, 577.667 136, 551 136 L 510 136 510 201 M 251.250 171.496 C 250.563 172.277, 250 174.060, 250 175.458 C 250 176.856, 249.550 178, 249 178 C 248.450 178, 248 179.350, 248 181 C 248 182.650, 247.550 184, 247 184 C 246.450 184, 246 185.350, 246 187 C 246 188.650, 245.550 190, 245 190 C 244.450 190, 244 190.900, 244 192 C 244 193.100, 243.550 194, 243 194 C 242.450 194, 242 195.350, 242 197 C 242 198.650, 241.550 200, 241 200 C 240.450 200, 240 200.900, 240 202 C 240 203.100, 239.550 204, 239 204 C 238.450 204, 238 205.350, 238 207 C 238 208.650, 237.550 210, 237 210 C 236.450 210, 236 210.900, 236 212 C 236 213.100, 235.550 214, 235 214 C 234.450 214, 234 215.350, 234 217 C 234 218.650, 233.550 220, 233 220 C 232.450 220, 232 220.900, 232 222 C 232 223.100, 231.550 224, 231 224 C 230.450 224, 230 224.900, 230 226 C 230 227.100, 229.550 228, 229 228 C 228.450 228, 228 228.900, 228 230 C 228 231.100, 227.550 232, 227 232 C 226.450 232, 226 232.900, 226 234 C 226 235.100, 225.550 236, 225 236 C 224.450 236, 224 236.900, 224 238 C 224 239.100, 223.550 240, 223 240 C 222.450 240, 222 240.900, 222 242 C 222 243.100, 221.550 244, 221 244 C 220.450 244, 220 244.900, 220 246 C 220 247.100, 219.550 248, 219 248 C 218.450 248, 218 249.251, 218 250.779 C 218 252.411, 217.174 254.153, 216 255 C 214.826 255.847, 214 257.589, 214 259.221 C 214 260.749, 213.550 262, 213 262 C 212.450 262, 212 262.900, 212 264 C 212 265.100, 211.550 266, 211 266 C 210.450 266, 210 266.900, 210 268 C 210 269.100, 209.550 270, 209 270 C 208.450 270, 208 270.900, 208 272 C 208 273.100, 207.550 274, 207 274 C 206.450 274, 206 274.900, 206 276 C 206 277.100, 205.550 278, 205 278 C 204.450 278, 204 278.900, 204 280 C 204 281.100, 203.550 282, 203 282 C 202.450 282, 202 282.900, 202 284 C 202 285.100, 201.550 286, 201 286 C 200.450 286, 200 286.900, 200 288 C 200 289.100, 199.550 290, 199 290 C 198.450 290, 198 290.900, 198 292 C 198 293.976, 198.667 294, 254 294 C 290.667 294, 310 293.655, 310 293 C 310 292.450, 309.550 292, 309 292 C 308.450 292, 308 291.100, 308 290 C 308 288.900, 307.550 288, 307 288 C 306.450 288, 306 287.100, 306 286 C 306 284.900, 305.550 284, 305 284 C 304.450 284, 304 283.100, 304 282 C 304 280.900, 303.550 280, 303 280 C 302.450 280, 302 279.100, 302 278 C 302 276.900, 301.550 276, 301 276 C 300.450 276, 300 275.100, 300 274 C 300 272.900, 299.550 272, 299 272 C 298.450 272, 298 271.100, 298 270 C 298 268.900, 297.550 268, 297 268 C 296.450 268, 296 267.100, 296 266 C 296 264.900, 295.550 264, 295 264 C 294.450 264, 294 263.100, 294 262 C 294 260.900, 293.550 260, 293 260 C 292.450 260, 292 259.100, 292 258 C 292 256.900, 291.550 256, 291 256 C 290.450 256, 290 255.100, 290 254 C 290 252.900, 289.550 252, 289 252 C 288.450 252, 288 250.650, 288 249 C 288 247.350, 287.550 246, 287 246 C 286.450 246, 286 245.100, 286 244 C 286 242.900, 285.550 242, 285 242 C 284.450 242, 284 241.100, 284 240 C 284 238.900, 283.550 238, 283 238 C 282.450 238, 282 237.100, 282 236 C 282 234.900, 281.550 234, 281 234 C 280.450 234, 280 233.100, 280 232 C 280 230.900, 279.550 230, 279 230 C 278.450 230, 278 229.100, 278 228 C 278 226.900, 277.550 226, 277 226 C 276.450 226, 276 225.100, 276 224 C 276 222.900, 275.550 222, 275 222 C 274.450 222, 274 221.100, 274 220 C 274 218.900, 273.550 218, 273 218 C 272.450 218, 272 216.650, 272 215 C 272 213.350, 271.550 212, 271 212 C 270.450 212, 270 211.100, 270 210 C 270 208.900, 269.550 208, 269 208 C 268.450 208, 268 206.650, 268 205 C 268 203.350, 267.550 202, 267 202 C 266.450 202, 266 201.100, 266 200 C 266 198.900, 265.550 198, 265 198 C 264.450 198, 264 196.650, 264 195 C 264 193.350, 263.550 192, 263 192 C 262.450 192, 262 190.650, 262 189 C 262 187.350, 261.550 186, 261 186 C 260.450 186, 260 184.650, 260 183 C 260 181.350, 259.550 180, 259 180 C 258.450 180, 258 178.650, 258 177 C 258 175.350, 257.550 174, 257 174 C 256.450 174, 256 173.100, 256 172 C 256 169.654, 253.139 169.350, 251.250 171.496 M 210 471 C 210 471.619, 204.667 472, 196 472 C 187.333 472, 182 472.381, 182 473 C 182 473.571, 179 474, 175 474 C 171 474, 168 474.429, 168 475 C 168 475.550, 166.200 476, 164 476 C 161.800 476, 160 476.450, 160 477 C 160 477.550, 158.200 478, 156 478 C 153.800 478, 152 478.450, 152 479 C 152 479.550, 151.100 480, 150 480 C 148.900 480, 148 480.450, 148 481 C 148 481.550, 146.650 482, 145 482 C 143.350 482, 142 482.450, 142 483 C 142 483.550, 140.650 484, 139 484 C 137.350 484, 136 484.450, 136 485 C 136 485.550, 135.100 486, 134 486 C 132.900 486, 132 486.450, 132 487 C 132 487.550, 131.100 488, 130 488 C 128.900 488, 128 488.450, 128 489 C 128 489.550, 127.199 490, 126.221 490 C 125.242 490, 123.793 490.900, 123 492 C 122.207 493.100, 120.857 494, 120 494 C 119.143 494, 117.793 494.900, 117 496 C 116.207 497.100, 114.948 498, 114.201 498 C 113.454 498, 111.114 499.800, 109 502 C 106.886 504.200, 104.639 506, 104.007 506 C 102.528 506, 100 508.520, 100 509.993 C 100 510.618, 97.750 513.321, 95 516 C 92.250 518.679, 90 521.475, 90 522.214 C 90 522.954, 89.100 524.207, 88 525 C 86.900 525.793, 86 527.242, 86 528.221 C 86 529.199, 85.550 530, 85 530 C 84.450 530, 84 530.900, 84 532 C 84 533.100, 83.550 534, 83 534 C 82.450 534, 82 534.900, 82 536 C 82 537.100, 81.550 538, 81 538 C 80.450 538, 80 539.350, 80 541 C 80 542.650, 79.550 544, 79 544 C 78.450 544, 78 545.350, 78 547 C 78 548.650, 77.550 550, 77 550 C 76.450 550, 76 552.250, 76 555 C 76 557.750, 75.550 560, 75 560 C 74.385 560, 74 565, 74 573 C 74 581, 74.385 586, 75 586 C 75.550 586, 76 588.250, 76 591 C 76 593.750, 76.450 596, 77 596 C 77.550 596, 78 596.900, 78 598 C 78 599.100, 78.450 600, 79 600 C 79.550 600, 80 601.350, 80 603 C 80 604.650, 80.450 606, 81 606 C 81.550 606, 82 606.801, 82 607.779 C 82 608.758, 82.900 610.207, 84 611 C 85.100 611.793, 86 613.024, 86 613.735 C 86 615.422, 102.578 632, 104.265 632 C 104.976 632, 106.207 632.900, 107 634 C 107.793 635.100, 109.242 636, 110.221 636 C 111.199 636, 112 636.450, 112 637 C 112 637.550, 112.900 638, 114 638 C 115.100 638, 116 638.450, 116 639 C 116 639.550, 116.900 640, 118 640 C 119.100 640, 120 640.450, 120 641 C 120 641.550, 120.900 642, 122 642 C 123.100 642, 124 642.450, 124 643 C 124 643.550, 125.350 644, 127 644 C 128.650 644, 130 644.450, 130 645 C 130 645.550, 131.800 646, 134 646 C 136.200 646, 138 646.450, 138 647 C 138 647.550, 139.800 648, 142 648 C 144.200 648, 146 648.450, 146 649 C 146 649.556, 148.667 650, 152 650 C 155.333 650, 158 650.444, 158 651 C 158 651.600, 162 652, 168 652 C 174 652, 178 652.400, 178 653 C 178 653.611, 182.667 654, 190 654 C 197.333 654, 202 654.389, 202 655 C 202 655.611, 206.667 656, 214 656 C 221.333 656, 226 656.389, 226 657 C 226 657.611, 230.667 658, 238 658 C 245.333 658, 250 658.389, 250 659 C 250 659.556, 252.667 660, 256 660 C 259.333 660, 262 660.444, 262 661 C 262 661.550, 263.800 662, 266 662 C 268.200 662, 270 662.450, 270 663 C 270 663.550, 270.900 664, 272 664 C 273.100 664, 274 664.450, 274 665 C 274 665.550, 274.687 666, 275.526 666 C 277.511 666, 286 674.489, 286 676.474 C 286 677.313, 286.450 678, 287 678 C 287.606 678, 288 682.333, 288 689 C 288 695.667, 287.606 700, 287 700 C 286.450 700, 286 700.801, 286 701.779 C 286 702.758, 285.100 704.207, 284 705 C 282.900 705.793, 282 707.049, 282 707.792 C 282 709.452, 279.562 712, 277.973 712 C 277.329 712, 275.541 713.350, 274 715 C 272.459 716.650, 270.478 718, 269.599 718 C 268.719 718, 268 718.450, 268 719 C 268 719.550, 267.100 720, 266 720 C 264.900 720, 264 720.450, 264 721 C 264 721.550, 262.650 722, 261 722 C 259.350 722, 258 722.450, 258 723 C 258 723.550, 256.200 724, 254 724 C 251.800 724, 250 724.450, 250 725 C 250 725.550, 247.750 726, 245 726 C 242.250 726, 240 726.450, 240 727 C 240 727.636, 232 728, 218 728 C 204 728, 196 727.636, 196 727 C 196 726.450, 193.750 726, 191 726 C 188.250 726, 186 725.550, 186 725 C 186 724.450, 184.200 724, 182 724 C 179.800 724, 178 723.550, 178 723 C 178 722.450, 176.650 722, 175 722 C 173.350 722, 172 721.550, 172 721 C 172 720.450, 171.100 720, 170 720 C 168.900 720, 168 719.550, 168 719 C 168 718.450, 167.281 718, 166.401 718 C 165.522 718, 163.541 716.650, 162 715 C 160.459 713.350, 158.683 712, 158.053 712 C 156.477 712, 152 707.390, 152 705.766 C 152 705.038, 151.100 703.793, 150 703 C 148.900 702.207, 148 700.758, 148 699.779 C 148 698.801, 147.550 698, 147 698 C 146.450 698, 146 696.650, 146 695 C 146 693.350, 145.550 692, 145 692 C 144.450 692, 144 690.410, 144 688.467 C 144 685.768, 143.181 684.114, 140.533 681.467 L 137.067 678 109 678 L 80.933 678 77.467 681.467 L 74 684.933 74 694.467 C 74 700.156, 74.403 704, 75 704 C 75.550 704, 76 705.800, 76 708 C 76 710.200, 76.450 712, 77 712 C 77.550 712, 78 713.350, 78 715 C 78 716.650, 78.450 718, 79 718 C 79.550 718, 80 719.251, 80 720.779 C 80 722.411, 80.826 724.153, 82 725 C 83.100 725.793, 84 727.242, 84 728.221 C 84 729.199, 84.450 730, 85 730 C 85.550 730, 86 730.719, 86 731.599 C 86 732.478, 87.350 734.459, 89 736 C 90.650 737.541, 92 739.305, 92 739.920 C 92 741.376, 104.624 754, 106.080 754 C 106.695 754, 108.459 755.350, 110 757 C 111.541 758.650, 113.423 760, 114.180 760 C 114.938 760, 116.207 760.900, 117 762 C 117.793 763.100, 119.242 764, 120.221 764 C 121.199 764, 122 764.450, 122 765 C 122 765.550, 122.900 766, 124 766 C 125.100 766, 126 766.450, 126 767 C 126 767.550, 126.900 768, 128 768 C 129.100 768, 130 768.450, 130 769 C 130 769.550, 130.900 770, 132 770 C 133.100 770, 134 770.450, 134 771 C 134 771.550, 135.350 772, 137 772 C 138.650 772, 140 772.450, 140 773 C 140 773.550, 140.900 774, 142 774 C 143.100 774, 144 774.450, 144 775 C 144 775.550, 145.350 776, 147 776 C 148.650 776, 150 776.450, 150 777 C 150 777.550, 151.800 778, 154 778 C 156.200 778, 158 778.450, 158 779 C 158 779.550, 159.800 780, 162 780 C 164.200 780, 166 780.450, 166 781 C 166 781.550, 168.250 782, 171 782 C 173.750 782, 176 782.450, 176 783 C 176 783.571, 179 784, 183 784 C 187 784, 190 784.429, 190 785 C 190 785.643, 200 786, 218 786 C 236 786, 246 785.643, 246 785 C 246 784.429, 249 784, 253 784 C 257 784, 260 783.571, 260 783 C 260 782.450, 261.800 782, 264 782 C 266.200 782, 268 781.550, 268 781 C 268 780.450, 270.250 780, 273 780 C 275.750 780, 278 779.550, 278 779 C 278 778.450, 279.350 778, 281 778 C 282.650 778, 284 777.550, 284 777 C 284 776.450, 285.350 776, 287 776 C 288.650 776, 290 775.550, 290 775 C 290 774.450, 290.900 774, 292 774 C 293.100 774, 294 773.550, 294 773 C 294 772.450, 294.900 772, 296 772 C 297.100 772, 298 771.550, 298 771 C 298 770.450, 298.900 770, 300 770 C 301.100 770, 302 769.550, 302 769 C 302 768.450, 302.900 768, 304 768 C 305.100 768, 306 767.550, 306 767 C 306 766.450, 306.900 766, 308 766 C 309.100 766, 310 765.550, 310 765 C 310 764.450, 310.719 764, 311.599 764 C 312.478 764, 314.459 762.650, 316 761 C 317.541 759.350, 319.302 758, 319.913 758 C 321.473 758, 342 737.305, 342 735.732 C 342 735.022, 342.900 733.793, 344 733 C 345.100 732.207, 346 730.758, 346 729.779 C 346 728.801, 346.450 728, 347 728 C 347.550 728, 348 727.100, 348 726 C 348 724.900, 348.450 724, 349 724 C 349.550 724, 350 723.100, 350 722 C 350 720.900, 350.450 720, 351 720 C 351.550 720, 352 719.100, 352 718 C 352 716.900, 352.450 716, 353 716 C 353.550 716, 354 714.650, 354 713 C 354 711.350, 354.450 710, 355 710 C 355.550 710, 356 707.750, 356 705 C 356 700.667, 356.267 700, 358 700 C 359.333 700, 360 700.667, 360 702 C 360 703.100, 360.450 704, 361 704 C 361.550 704, 362 704.900, 362 706 C 362 707.100, 362.450 708, 363 708 C 363.550 708, 364 708.801, 364 709.779 C 364 710.758, 364.900 712.207, 366 713 C 367.100 713.793, 368 715.143, 368 716 C 368 716.857, 368.900 718.207, 370 719 C 371.100 719.793, 372 721.046, 372 721.786 C 372 722.525, 374.250 725.321, 377 728 C 379.750 730.679, 382 733.359, 382 733.957 C 382 735.381, 392.631 746, 394.057 746 C 394.662 746, 396.886 747.800, 399 750 C 401.114 752.200, 403.454 754, 404.201 754 C 404.948 754, 406.207 754.900, 407 756 C 407.793 757.100, 409.143 758, 410 758 C 410.857 758, 412.207 758.900, 413 760 C 413.793 761.100, 415.242 762, 416.221 762 C 417.199 762, 418 762.450, 418 763 C 418 763.550, 418.801 764, 419.779 764 C 420.758 764, 422.207 764.900, 423 766 C 423.793 767.100, 425.242 768, 426.221 768 C 427.199 768, 428 768.450, 428 769 C 428 769.550, 428.900 770, 430 770 C 431.100 770, 432 770.450, 432 771 C 432 771.550, 433.350 772, 435 772 C 436.650 772, 438 772.450, 438 773 C 438 773.550, 438.900 774, 440 774 C 441.100 774, 442 774.450, 442 775 C 442 775.550, 443.350 776, 445 776 C 446.650 776, 448 776.450, 448 777 C 448 777.550, 449.350 778, 451 778 C 452.650 778, 454 778.450, 454 779 C 454 779.550, 455.800 780, 458 780 C 460.200 780, 462 780.450, 462 781 C 462 781.550, 463.800 782, 466 782 C 468.200 782, 470 782.450, 470 783 C 470 783.571, 473 784, 477 784 C 481 784, 484 784.429, 484 785 C 484 785.639, 492.667 786, 508 786 C 523.333 786, 532 785.639, 532 785 C 532 784.417, 535.333 784, 540 784 C 544.667 784, 548 783.583, 548 783 C 548 782.450, 549.800 782, 552 782 C 554.200 782, 556 781.550, 556 781 C 556 780.450, 558.250 780, 561 780 C 563.750 780, 566 779.550, 566 779 C 566 778.450, 567.350 778, 569 778 C 570.650 778, 572 777.550, 572 777 C 572 776.450, 573.350 776, 575 776 C 576.650 776, 578 775.550, 578 775 C 578 774.450, 578.900 774, 580 774 C 581.100 774, 582 773.550, 582 773 C 582 772.450, 583.350 772, 585 772 C 586.650 772, 588 771.550, 588 771 C 588 770.450, 588.900 770, 590 770 C 591.100 770, 592 769.550, 592 769 C 592 768.450, 592.900 768, 594 768 C 595.100 768, 596 767.550, 596 767 C 596 766.450, 596.801 766, 597.779 766 C 598.758 766, 600.207 765.100, 601 764 C 601.793 762.900, 603.242 762, 604.221 762 C 605.199 762, 606 761.550, 606 761 C 606 760.450, 606.719 760, 607.599 760 C 608.478 760, 610.459 758.650, 612 757 C 613.541 755.350, 615.302 754, 615.912 754 C 617.472 754, 640 731.303, 640 729.731 C 640 729.022, 640.900 727.793, 642 727 C 643.100 726.207, 644 724.758, 644 723.779 C 644 722.801, 644.450 722, 645 722 C 645.550 722, 646 721.199, 646 720.221 C 646 719.242, 646.900 717.793, 648 717 C 649.174 716.153, 650 714.411, 650 712.779 C 650 711.251, 650.450 710, 651 710 C 651.550 710, 652 709.100, 652 708 C 652 706.900, 652.450 706, 653 706 C 653.550 706, 654 704.650, 654 703 C 654 701.350, 654.450 700, 655 700 C 655.550 700, 656 698.650, 656 697 C 656 695.350, 656.450 694, 657 694 C 657.556 694, 658 691.333, 658 688 C 658 684.667, 658.444 682, 659 682 C 659.653 682, 660 698.515, 660 729.545 L 660 777.091 662.455 779.545 L 664.909 782 694.455 782 C 713.485 782, 724 781.644, 724 781 C 724 780.450, 724.900 780, 726 780 C 727.333 780, 728 779.333, 728 778 C 728 776.900, 728.450 776, 729 776 C 729.662 776, 730 726.333, 730 629 C 730 531.667, 729.662 482, 729 482 C 728.450 482, 728 481.293, 728 480.429 C 728 476.189, 726.592 476, 695.026 476 L 664.909 476 662.455 478.455 L 660 480.909 660 531.455 C 660 564.485, 659.653 582, 659 582 C 658.444 582, 658 579.333, 658 576 C 658 572.667, 657.556 570, 657 570 C 656.450 570, 656 568.650, 656 567 C 656 565.350, 655.550 564, 655 564 C 654.450 564, 654 562.200, 654 560 C 654 557.800, 653.550 556, 653 556 C 652.450 556, 652 555.100, 652 554 C 652 552.900, 651.550 552, 651 552 C 650.450 552, 650 551.100, 650 550 C 650 548.900, 649.550 548, 649 548 C 648.450 548, 648 547.100, 648 546 C 648 544.900, 647.550 544, 647 544 C 646.450 544, 646 543.100, 646 542 C 646 540.900, 645.550 540, 645 540 C 644.450 540, 644 539.199, 644 538.221 C 644 537.242, 643.100 535.793, 642 535 C 640.900 534.207, 640 532.938, 640 532.180 C 640 531.423, 638.650 529.541, 637 528 C 635.350 526.459, 634 524.697, 634 524.085 C 634 522.632, 617.368 506, 615.915 506 C 615.303 506, 613.541 504.650, 612 503 C 610.459 501.350, 608.577 500, 607.820 500 C 607.062 500, 605.793 499.100, 605 498 C 604.207 496.900, 602.758 496, 601.779 496 C 600.801 496, 600 495.550, 600 495 C 600 494.450, 599.199 494, 598.221 494 C 597.242 494, 595.793 493.100, 595 492 C 594.207 490.900, 592.758 490, 591.779 490 C 590.801 490, 590 489.550, 590 489 C 590 488.450, 589.100 488, 588 488 C 586.900 488, 586 487.550, 586 487 C 586 486.450, 584.650 486, 583 486 C 581.350 486, 580 485.550, 580 485 C 580 484.450, 579.100 484, 578 484 C 576.900 484, 576 483.550, 576 483 C 576 482.450, 574.650 482, 573 482 C 571.350 482, 570 481.550, 570 481 C 570 480.450, 568.650 480, 567 480 C 565.350 480, 564 479.550, 564 479 C 564 478.450, 562.200 478, 560 478 C 557.800 478, 556 477.550, 556 477 C 556 476.450, 554.200 476, 552 476 C 549.800 476, 548 475.550, 548 475 C 548 474.444, 545.333 474, 542 474 C 538.667 474, 536 473.556, 536 473 C 536 472.381, 530.694 472, 522.083 472 C 511.928 472, 508.009 471.662, 507.583 470.750 C 507.117 469.750, 506.883 469.750, 506.417 470.750 C 505.998 471.647, 502.472 472, 493.917 472 C 486.639 472, 482 472.389, 482 473 C 482 473.571, 479 474, 475 474 C 471 474, 468 474.429, 468 475 C 468 475.550, 466.200 476, 464 476 C 461.800 476, 460 476.450, 460 477 C 460 477.550, 458.200 478, 456 478 C 453.800 478, 452 478.450, 452 479 C 452 479.550, 451.100 480, 450 480 C 448.900 480, 448 480.450, 448 481 C 448 481.550, 446.650 482, 445 482 C 443.350 482, 442 482.450, 442 483 C 442 483.550, 441.100 484, 440 484 C 438.900 484, 438 484.450, 438 485 C 438 485.550, 436.650 486, 435 486 C 433.350 486, 432 486.450, 432 487 C 432 487.550, 431.100 488, 430 488 C 428.900 488, 428 488.450, 428 489 C 428 489.550, 427.100 490, 426 490 C 424.900 490, 424 490.450, 424 491 C 424 491.550, 423.100 492, 422 492 C 420.900 492, 420 492.450, 420 493 C 420 493.550, 419.199 494, 418.221 494 C 417.242 494, 415.793 494.900, 415 496 C 414.207 497.100, 412.857 498, 412 498 C 411.143 498, 409.793 498.900, 409 500 C 408.207 501.100, 406.948 502, 406.201 502 C 405.454 502, 403.114 503.800, 401 506 C 398.886 508.200, 396.664 510, 396.062 510 C 394.635 510, 380 524.635, 380 526.062 C 380 526.664, 378.200 528.886, 376 531 C 373.800 533.114, 372 535.454, 372 536.201 C 372 536.948, 371.100 538.207, 370 539 C 368.900 539.793, 368 541.143, 368 542 C 368 542.857, 367.100 544.207, 366 545 C 364.900 545.793, 364 547.242, 364 548.221 C 364 549.199, 363.550 550, 363 550 C 362.450 550, 362 550.900, 362 552 C 362 553.100, 361.550 554, 361 554 C 360.450 554, 360 554.900, 360 556 C 360 557.100, 359.550 558, 359 558 C 358.450 558, 358 558.900, 358 560 C 358 561.100, 357.550 562, 357 562 C 356.450 562, 356 562.900, 356 564 C 356 565.100, 355.550 566, 355 566 C 354.450 566, 354 567.350, 354 569 C 354 570.650, 353.550 572, 353 572 C 352.450 572, 352 573.350, 352 575 C 352 576.650, 351.550 578, 351 578 C 350.450 578, 350 579.350, 350 581 C 350 582.650, 349.550 584, 349 584 C 348.450 584, 348 585.800, 348 588 C 348 590.200, 347.550 592, 347 592 C 346.450 592, 346 594.250, 346 597 C 346 599.750, 345.550 602, 345 602 C 344.373 602, 344 608.333, 344 619 C 344 633.680, 343.789 636, 342.452 636 C 341.600 636, 337.797 632.850, 334 629 C 330.203 625.150, 326.499 622, 325.769 622 C 325.039 622, 323.793 621.100, 323 620 C 322.207 618.900, 320.758 618, 319.779 618 C 318.801 618, 318 617.550, 318 617 C 318 616.450, 317.100 616, 316 616 C 314.900 616, 314 615.550, 314 615 C 314 614.450, 313.100 614, 312 614 C 310.900 614, 310 613.550, 310 613 C 310 612.450, 308.650 612, 307 612 C 305.350 612, 304 611.550, 304 611 C 304 610.450, 303.100 610, 302 610 C 300.900 610, 300 609.550, 300 609 C 300 608.450, 298.200 608, 296 608 C 293.800 608, 292 607.550, 292 607 C 292 606.450, 290.200 606, 288 606 C 285.800 606, 284 605.550, 284 605 C 284 604.450, 281.750 604, 279 604 C 276.250 604, 274 603.550, 274 603 C 274 602.417, 270.667 602, 266 602 C 261.333 602, 258 601.583, 258 601 C 258 600.385, 253 600, 245 600 C 237 600, 232 599.615, 232 599 C 232 598.394, 227.667 598, 221 598 C 214.333 598, 210 597.606, 210 597 C 210 596.381, 204.667 596, 196 596 C 187.333 596, 182 595.619, 182 595 C 182 594.429, 179 594, 175 594 C 171 594, 168 593.571, 168 593 C 168 592.450, 166.200 592, 164 592 C 161.800 592, 160 591.550, 160 591 C 160 590.450, 159.100 590, 158 590 C 156.900 590, 156 589.550, 156 589 C 156 588.450, 155.310 588, 154.467 588 C 152.476 588, 146 581.524, 146 579.533 C 146 578.690, 145.550 578, 145 578 C 144.407 578, 144 574.333, 144 569 C 144 563.667, 144.407 560, 145 560 C 145.550 560, 146 558.749, 146 557.221 C 146 555.589, 146.826 553.847, 148 553 C 149.100 552.207, 150 550.962, 150 550.234 C 150 548.517, 154.517 544, 156.234 544 C 156.962 544, 158.207 543.100, 159 542 C 159.793 540.900, 161.242 540, 162.221 540 C 163.199 540, 164 539.550, 164 539 C 164 538.450, 164.900 538, 166 538 C 167.100 538, 168 537.550, 168 537 C 168 536.450, 168.900 536, 170 536 C 171.100 536, 172 535.550, 172 535 C 172 534.450, 173.800 534, 176 534 C 178.200 534, 180 533.550, 180 533 C 180 532.450, 181.800 532, 184 532 C 186.200 532, 188 531.550, 188 531 C 188 530.364, 196 530, 210 530 C 224 530, 232 530.364, 232 531 C 232 531.550, 234.250 532, 237 532 C 239.750 532, 242 532.450, 242 533 C 242 533.550, 243.350 534, 245 534 C 246.650 534, 248 534.450, 248 535 C 248 535.550, 248.900 536, 250 536 C 251.100 536, 252 536.450, 252 537 C 252 537.550, 252.900 538, 254 538 C 255.100 538, 256 538.450, 256 539 C 256 539.550, 256.685 540, 257.522 540 C 259.502 540, 270 550.498, 270 552.478 C 270 553.315, 270.450 554, 271 554 C 271.550 554, 272 554.900, 272 556 C 272 557.100, 272.450 558, 273 558 C 273.550 558, 274 559.350, 274 561 C 274 562.650, 274.450 564, 275 564 C 275.550 564, 276 565.157, 276 566.571 C 276 571.943, 276.348 572, 308.974 572 L 339.091 572 341.545 569.545 C 343.809 567.282, 344 566.347, 344 557.545 C 344 551.848, 343.597 548, 343 548 C 342.450 548, 342 546.200, 342 544 C 342 541.800, 341.550 540, 341 540 C 340.450 540, 340 538.650, 340 537 C 340 535.350, 339.550 534, 339 534 C 338.450 534, 338 533.100, 338 532 C 338 530.900, 337.550 530, 337 530 C 336.450 530, 336 529.100, 336 528 C 336 526.900, 335.550 526, 335 526 C 334.450 526, 334 525.100, 334 524 C 334 522.900, 333.550 522, 333 522 C 332.450 522, 332 521.281, 332 520.401 C 332 519.522, 330.650 517.541, 329 516 C 327.350 514.459, 326 512.691, 326 512.072 C 326 510.619, 317.398 502, 315.948 502 C 315.340 502, 313.114 500.200, 311 498 C 308.886 495.800, 306.447 494, 305.578 494 C 304.710 494, 304 493.550, 304 493 C 304 492.450, 303.100 492, 302 492 C 300.900 492, 300 491.550, 300 491 C 300 490.450, 299.199 490, 298.221 490 C 297.242 490, 295.793 489.100, 295 488 C 294.153 486.826, 292.411 486, 290.779 486 C 289.251 486, 288 485.550, 288 485 C 288 484.450, 287.100 484, 286 484 C 284.900 484, 284 483.550, 284 483 C 284 482.450, 282.650 482, 281 482 C 279.350 482, 278 481.550, 278 481 C 278 480.450, 276.650 480, 275 480 C 273.350 480, 272 479.550, 272 479 C 272 478.450, 270.200 478, 268 478 C 265.800 478, 264 477.550, 264 477 C 264 476.450, 262.200 476, 260 476 C 257.800 476, 256 475.550, 256 475 C 256 474.429, 253 474, 249 474 C 245 474, 242 473.571, 242 473 C 242 472.378, 236.333 472, 227 472 C 217.667 472, 212 471.622, 212 471 C 212 470.450, 211.550 470, 211 470 C 210.450 470, 210 470.450, 210 471 M 488 531 C 488 531.550, 486.200 532, 484 532 C 481.800 532, 480 532.450, 480 533 C 480 533.550, 478.650 534, 477 534 C 475.350 534, 474 534.450, 474 535 C 474 535.550, 473.100 536, 472 536 C 470.900 536, 470 536.450, 470 537 C 470 537.550, 468.749 538, 467.221 538 C 465.589 538, 463.847 538.826, 463 540 C 462.207 541.100, 460.758 542, 459.779 542 C 458.801 542, 458 542.450, 458 543 C 458 543.550, 457.281 544, 456.401 544 C 455.522 544, 453.541 545.350, 452 547 C 450.459 548.650, 448.695 550, 448.080 550 C 446.624 550, 434 562.624, 434 564.080 C 434 564.695, 432.650 566.459, 431 568 C 429.350 569.541, 428 571.522, 428 572.401 C 428 573.281, 427.550 574, 427 574 C 426.450 574, 426 574.900, 426 576 C 426 577.100, 425.550 578, 425 578 C 424.450 578, 424 578.900, 424 580 C 424 581.100, 423.550 582, 423 582 C 422.450 582, 422 582.900, 422 584 C 422 585.100, 421.550 586, 421 586 C 420.450 586, 420 586.900, 420 588 C 420 589.100, 419.550 590, 419 590 C 418.450 590, 418 591.350, 418 593 C 418 594.650, 417.550 596, 417 596 C 416.450 596, 416 597.800, 416 600 C 416 602.200, 415.550 604, 415 604 C 414.429 604, 414 607, 414 611 C 414 615, 413.571 618, 413 618 C 412.394 618, 412 622.333, 412 629 C 412 635.667, 412.394 640, 413 640 C 413.571 640, 414 643, 414 647 C 414 651, 414.429 654, 415 654 C 415.550 654, 416 655.800, 416 658 C 416 660.200, 416.450 662, 417 662 C 417.550 662, 418 663.350, 418 665 C 418 666.650, 418.450 668, 419 668 C 419.550 668, 420 668.900, 420 670 C 420 671.100, 420.450 672, 421 672 C 421.550 672, 422 673.251, 422 674.779 C 422 676.411, 422.826 678.153, 424 679 C 425.100 679.793, 426 681.242, 426 682.221 C 426 683.199, 426.450 684, 427 684 C 427.550 684, 428 684.801, 428 685.779 C 428 686.758, 428.900 688.207, 430 689 C 431.100 689.793, 432 691.024, 432 691.735 C 432 693.422, 448.578 710, 450.265 710 C 450.976 710, 452.207 710.900, 453 712 C 453.793 713.100, 455.143 714, 456 714 C 456.857 714, 458.207 714.900, 459 716 C 459.793 717.100, 461.242 718, 462.221 718 C 463.199 718, 464 718.450, 464 719 C 464 719.550, 465.350 720, 467 720 C 468.650 720, 470 720.450, 470 721 C 470 721.550, 470.900 722, 472 722 C 473.100 722, 474 722.450, 474 723 C 474 723.550, 475.800 724, 478 724 C 480.200 724, 482 724.450, 482 725 C 482 725.550, 483.800 726, 486 726 C 488.200 726, 490 726.450, 490 727 C 490 727.630, 496.667 728, 508 728 C 519.333 728, 526 727.630, 526 727 C 526 726.450, 528.250 726, 531 726 C 533.750 726, 536 725.550, 536 725 C 536 724.450, 537.350 724, 539 724 C 540.650 724, 542 723.550, 542 723 C 542 722.450, 543.350 722, 545 722 C 546.650 722, 548 721.550, 548 721 C 548 720.450, 548.900 720, 550 720 C 551.100 720, 552 719.550, 552 719 C 552 718.450, 553.251 718, 554.779 718 C 556.411 718, 558.153 717.174, 559 716 C 559.793 714.900, 561.062 714, 561.820 714 C 562.577 714, 564.459 712.650, 566 711 C 567.541 709.350, 569.329 708, 569.973 708 C 571.474 708, 574 705.487, 574 703.993 C 574 703.361, 575.800 701.114, 578 699 C 580.200 696.886, 582 694.447, 582 693.578 C 582 692.710, 582.450 692, 583 692 C 583.550 692, 584 691.100, 584 690 C 584 688.900, 584.450 688, 585 688 C 585.550 688, 586 687.100, 586 686 C 586 684.900, 586.450 684, 587 684 C 587.550 684, 588 682.200, 588 680 C 588 677.800, 588.450 676, 589 676 C 589.550 676, 590 674.200, 590 672 C 590 669.800, 590.450 668, 591 668 C 591.550 668, 592 667.100, 592 666 C 592 664.667, 592.667 664, 594 664 C 595.100 664, 596 663.550, 596 663 C 596 662.357, 606.200 662, 624.599 662 L 653.198 662 656 665 C 657.541 666.650, 659.072 668, 659.401 668 C 659.731 668, 660 651.800, 660 632 C 660 608.667, 659.648 596, 659 596 C 658.450 596, 658 596.450, 658 597 C 658 597.550, 657.100 598, 656 598 C 654.900 598, 654 598.450, 654 599 C 654 599.644, 643.667 600, 625 600 C 606.333 600, 596 599.644, 596 599 C 596 598.450, 595.100 598, 594 598 C 592.667 598, 592 597.333, 592 596 C 592 594.900, 591.550 594, 591 594 C 590.450 594, 590 592.200, 590 590 C 590 587.800, 589.550 586, 589 586 C 588.450 586, 588 584.200, 588 582 C 588 579.800, 587.550 578, 587 578 C 586.450 578, 586 577.100, 586 576 C 586 574.900, 585.550 574, 585 574 C 584.450 574, 584 573.100, 584 572 C 584 570.900, 583.550 570, 583 570 C 582.450 570, 582 569.100, 582 568 C 582 566.900, 581.550 566, 581 566 C 580.450 566, 580 565.319, 580 564.487 C 580 562.514, 561.486 544, 559.513 544 C 558.681 544, 558 543.550, 558 543 C 558 542.450, 557.199 542, 556.221 542 C 555.242 542, 553.793 541.100, 553 540 C 552.153 538.826, 550.411 538, 548.779 538 C 547.251 538, 546 537.550, 546 537 C 546 536.450, 545.100 536, 544 536 C 542.900 536, 542 535.550, 542 535 C 542 534.450, 540.650 534, 539 534 C 537.350 534, 536 533.550, 536 533 C 536 532.450, 534.200 532, 532 532 C 529.800 532, 528 531.550, 528 531 C 528 530.367, 520.667 530, 508 530 C 495.333 530, 488 530.367, 488 531" stroke="none" fill="#f8f9fb" fill-rule="evenodd"/></svg>